<svg xmlns="http://www.w3.org/2000/svg" viewBox="-1637 -2996 411 411"><path d="M187.656,308.554c61.835-23.708,96.478-17.612,149.894-42.675s89.9-90.479,89.9-90.479-157.055,23.612-218.794,55.062S129.3,288.329,114.6,325.1s-15.1,68.512-15.1,68.512S125.821,332.262,187.656,308.554Z" transform="translate(-1676.828 -3171.4)"/><path d="M188.656,310.846c56.222-24.482,57.287-14.419,73.544-29.708S284.36,213.4,284.36,213.4s-32.708,3.581-75.673,18.29-72,53.609-90.091,90.091-18.1,71.9-18.1,71.9S132.434,335.329,188.656,310.846Z" transform="translate(-1696.213 -3076.49)"/><path d="M190.062,303.33c44.462-19.593,39.527-7.981,73.009-17.851S352.969,195,352.969,195,304.2,205.935,243.814,218.9,135.433,285.672,118.6,321.187s-18.1,73.157-18.1,73.157S145.6,322.923,190.062,303.33Z" transform="translate(-1714.6 -2979.344)"/></svg>