<svg width="411pt" height="411pt" viewBox="0 0 411 411" version="1.1" xmlns="http://www.w3.org/2000/svg"><path d=" M 199.40 0.00 L 210.50 0.00 C 244.98 2.00 266.76 45.17 247.88 74.10 C 271.05 85.82 288.89 106.76 298.12 130.91 C 314.51 169.26 317.42 211.17 321.76 252.11 C 335.02 283.17 348.47 314.19 362.08 345.10 C 257.64 345.04 153.20 345.11 48.76 345.07 C 62.09 313.95 75.86 283.00 89.04 251.83 C 93.04 214.71 95.32 176.88 108.51 141.55 C 117.38 113.42 135.81 87.37 162.74 74.15 C 144.09 45.34 165.30 2.79 199.40 0.00 M 200.30 33.43 C 189.63 36.46 185.13 51.14 192.63 59.45 C 200.01 69.47 217.94 66.17 221.00 53.99 C 225.47 41.94 212.34 28.99 200.30 33.43 M 153.22 124.28 C 127.40 164.86 126.70 214.66 121.04 260.91 C 113.76 278.05 106.25 295.10 98.84 312.20 C 169.87 312.23 240.90 312.22 311.93 312.20 C 304.35 295.03 296.87 277.80 289.53 260.53 C 285.30 225.91 284.27 190.49 272.74 157.21 C 266.48 135.28 254.02 113.46 232.66 103.35 C 205.34 92.36 170.25 98.71 153.22 124.28 Z" /><path d=" M 157.10 383.92 C 149.77 367.75 173.79 353.57 184.72 367.20 C 194.57 380.83 215.59 381.22 225.59 367.55 C 236.32 353.54 260.80 367.30 253.62 383.75 C 244.88 399.35 226.91 408.91 209.42 411.00 L 203.42 411.00 C 185.15 409.87 166.33 399.94 157.10 383.92 Z" /></svg>