<svg width="411pt" height="411pt" viewBox="0 0 411 411" version="1.1" xmlns="http://www.w3.org/2000/svg"><path d=" M 195.46 0.00 L 208.49 0.00 C 244.60 0.80 280.47 10.92 311.43 29.57 C 370.41 64.54 409.19 130.60 410.84 199.17 L 411.00 195.40 L 411.00 208.65 C 410.31 276.86 373.34 343.32 315.39 379.38 C 286.55 397.73 253.07 408.40 219.04 411.00 L 193.13 411.00 C 129.74 407.59 69.14 372.79 34.22 319.79 C 14.26 290.03 2.71 254.97 0.00 219.30 L 0.00 193.69 C 3.35 131.62 36.63 72.07 87.91 36.91 C 119.37 14.74 157.20 2.51 195.46 0.00 M 193.30 33.44 C 130.50 37.11 71.69 78.43 47.23 136.42 C 18.94 198.24 32.80 276.12 80.23 324.73 C 127.71 376.20 207.91 392.88 272.07 364.96 C 328.29 342.09 369.87 287.33 376.61 226.99 C 381.62 188.97 373.10 149.46 353.32 116.64 C 321.07 61.85 256.69 28.32 193.30 33.44 Z" /><path d=" M 200.36 58.48 C 213.51 53.34 227.20 69.65 219.79 81.74 C 215.13 91.72 199.98 93.56 193.06 84.99 C 185.15 76.77 189.22 61.40 200.36 58.48 Z" /><path d=" M 99.20 100.04 C 148.58 121.25 198.05 142.32 247.38 163.62 C 268.81 212.86 289.55 262.44 311.08 311.64 C 262.41 290.12 213.50 269.14 164.78 247.74 C 143.04 198.46 121.06 149.27 99.20 100.04 M 163.33 163.39 C 172.20 183.03 180.79 202.80 189.67 222.43 C 208.80 231.56 228.69 239.49 248.08 248.23 C 239.25 228.47 231.00 208.45 222.40 188.60 C 202.71 180.21 183.07 171.68 163.33 163.39 Z" /><path d=" M 71.34 189.45 C 82.55 187.43 93.31 199.39 89.43 210.32 C 86.55 222.42 69.08 226.38 61.40 216.54 C 52.58 207.50 58.85 190.78 71.34 189.45 Z" /><path d=" M 334.35 189.49 C 355.40 185.18 360.36 220.13 339.15 222.00 C 318.56 225.85 313.59 191.80 334.35 189.49 Z" /><path d=" M 201.34 321.42 C 213.07 317.80 225.17 330.52 220.99 342.02 C 218.29 353.57 201.98 357.62 193.91 349.14 C 184.64 341.01 189.14 323.68 201.34 321.42 Z" /></svg>