<?xml version="1.0" encoding="UTF-8" ?>
<!DOCTYPE svg PUBLIC "-//W3C//DTD SVG 1.1//EN" "http://www.w3.org/Graphics/SVG/1.1/DTD/svg11.dtd">
<svg width="411pt" height="411pt" viewBox="0 0 411 411" version="1.1" xmlns="http://www.w3.org/2000/svg">
<g id="#e4e4e4ff">
</g>
<g id="#ffffffff">
<path fill="#ffffff" opacity="1.00" d=" M 43.46 0.00 L 366.49 0.00 C 388.15 2.67 407.07 19.80 411.00 41.43 L 411.00 369.57 C 407.06 390.86 388.78 407.79 367.52 411.00 L 43.49 411.00 C 22.94 408.30 5.10 392.79 0.00 372.62 L 0.00 38.43 C 5.05 18.21 22.97 2.89 43.46 0.00 M 45.33 33.44 C 37.81 34.92 31.68 42.25 32.16 49.99 C 32.18 153.66 32.17 257.33 32.17 361.00 C 31.51 369.77 39.25 377.83 47.97 377.99 C 152.65 378.01 257.34 378.00 362.01 377.99 C 370.95 378.09 378.77 369.90 378.30 361.00 C 378.32 257.33 378.32 153.67 378.30 50.00 C 378.69 40.81 370.20 32.49 361.00 33.12 C 255.78 33.33 150.51 32.70 45.33 33.44 Z" />
<path fill="#ffffff" opacity="1.00" d=" M 197.01 288.73 C 230.20 256.27 262.96 223.17 295.92 190.40 C 311.12 206.09 327.08 221.08 342.04 236.98 C 351.95 248.57 338.21 267.62 324.07 262.33 C 312.56 256.90 305.68 244.82 295.73 237.33 C 262.75 269.72 230.21 302.82 197.01 335.04 C 180.11 319.27 163.98 302.42 147.41 286.20 C 129.09 304.65 110.63 322.98 92.10 341.20 C 78.56 354.06 56.31 333.59 68.26 319.12 C 94.12 292.27 121.12 266.40 147.26 239.78 C 164.19 255.69 180.12 272.89 197.01 288.73 Z" />
</g>
<g id="#26272bff">
</g>
</svg>
