<?xml version="1.0" encoding="UTF-8" ?>
<!DOCTYPE svg PUBLIC "-//W3C//DTD SVG 1.1//EN" "http://www.w3.org/Graphics/SVG/1.1/DTD/svg11.dtd">
<svg width="411pt" height="411pt" viewBox="0 0 411 411" version="1.1" xmlns="http://www.w3.org/2000/svg">
<g id="#26272bff">
</g>
<g id="#ffffffff">
<path fill="#ffffff" opacity="1.00" d=" M 32.28 80.11 C 79.98 80.07 127.69 80.20 175.39 80.04 C 175.42 92.53 175.37 105.01 175.41 117.49 C 142.41 117.46 109.40 117.50 76.39 117.48 C 76.42 142.61 76.39 167.74 76.41 192.87 C 106.86 192.83 137.30 192.87 167.75 192.85 C 167.59 205.22 167.76 217.58 167.66 229.95 C 137.25 229.86 106.83 229.89 76.41 229.94 C 76.39 256.11 76.43 282.28 76.39 308.45 C 111.39 308.44 146.39 308.43 181.40 308.45 C 181.38 320.83 181.38 333.22 181.40 345.60 C 131.69 345.63 81.98 345.61 32.27 345.62 C 32.29 257.11 32.26 168.61 32.28 80.11 Z" />
<path fill="#ffffff" opacity="1.00" d=" M 216.21 217.37 C 225.82 183.09 256.80 154.73 292.93 152.20 C 323.90 148.10 358.28 161.42 372.32 190.64 C 384.14 212.56 384.73 238.11 384.27 262.41 C 341.18 262.40 298.09 262.41 255.00 262.40 C 255.21 280.01 262.32 298.74 278.03 308.09 C 306.36 324.65 343.72 317.67 369.41 299.09 C 369.47 310.66 369.41 322.23 369.44 333.80 C 347.64 347.29 321.18 350.89 296.00 349.76 C 267.58 349.72 238.86 335.28 224.94 309.94 C 209.89 281.93 208.13 247.77 216.21 217.37 M 271.88 195.87 C 261.98 205.40 256.82 218.83 255.00 232.24 C 284.23 232.25 313.47 232.20 342.70 232.27 C 342.86 218.00 339.25 202.62 328.44 192.60 C 312.69 178.64 286.12 180.66 271.88 195.87 Z" />
</g>
</svg>
