<?xml version="1.0" encoding="UTF-8" ?>
<!DOCTYPE svg PUBLIC "-//W3C//DTD SVG 1.1//EN" "http://www.w3.org/Graphics/SVG/1.1/DTD/svg11.dtd">
<svg width="411pt" height="411pt" viewBox="0 0 411 411" version="1.1" xmlns="http://www.w3.org/2000/svg">
<g id="#26272bff">
</g>
<g id="#ffffffff">
<path fill="#ffffff" opacity="1.00" d=" M 285.35 0.00 L 289.32 0.00 C 293.78 0.54 297.43 3.40 300.27 6.71 C 317.53 24.11 334.92 41.39 352.28 58.69 C 357.46 63.79 356.30 71.43 356.30 78.00 C 355.08 95.36 358.84 113.67 354.29 130.42 C 328.14 157.87 300.75 184.33 274.00 211.27 C 273.95 225.80 274.09 240.34 273.93 254.88 C 286.67 268.15 300.31 280.62 312.73 294.16 C 321.54 305.63 305.50 321.91 293.88 313.24 C 278.99 299.51 265.11 284.62 250.60 270.47 C 245.25 265.37 246.57 257.61 246.49 250.99 C 247.59 233.82 244.23 215.82 248.24 199.16 C 274.08 171.20 302.19 145.14 328.67 117.69 C 329.14 103.23 328.69 88.69 328.89 74.20 C 311.82 56.90 294.38 39.94 277.36 22.60 C 270.20 15.08 275.17 1.50 285.35 0.00 Z" />
<path fill="#ffffff" opacity="1.00" d=" M 209.94 42.94 C 220.22 32.04 239.23 28.42 250.93 39.13 C 264.53 52.50 278.03 66.00 291.42 79.58 C 301.88 91.05 298.64 109.78 288.02 120.00 C 222.23 185.89 156.34 251.67 90.50 317.51 C 80.75 329.44 61.56 335.83 48.40 325.66 C 34.55 312.87 21.71 299.00 8.15 285.90 C 3.93 282.08 1.25 276.92 0.00 271.41 L 0.00 262.88 C 0.84 254.30 5.62 246.62 11.90 240.91 C 77.91 174.92 143.86 108.86 209.94 42.94 Z" />
<path fill="#ffffff" opacity="1.00" d=" M 348.16 309.83 C 366.53 328.18 384.93 346.50 403.25 364.90 C 407.06 369.29 410.75 374.63 410.38 380.71 L 411.00 377.91 L 411.00 386.07 C 410.49 398.01 401.14 408.32 389.68 411.00 L 378.34 411.00 C 371.15 409.62 365.16 404.93 360.37 399.60 C 343.32 382.63 326.45 365.47 309.26 348.64 C 322.36 335.85 335.30 322.87 348.16 309.83 Z" />
</g>
</svg>
