<?xml version="1.0" encoding="UTF-8" ?>
<!DOCTYPE svg PUBLIC "-//W3C//DTD SVG 1.1//EN" "http://www.w3.org/Graphics/SVG/1.1/DTD/svg11.dtd">
<svg width="411pt" height="411pt" viewBox="0 0 411 411" version="1.1" xmlns="http://www.w3.org/2000/svg">
<g id="#26272bff">
</g>
<g id="#ffffffff">
<path fill="#ffffff" opacity="1.00" d=" M 186.70 0.00 L 220.26 0.00 C 242.07 1.69 263.76 6.38 283.87 15.11 C 308.89 25.40 331.81 40.68 351.22 59.49 C 361.95 48.62 372.81 37.87 383.63 27.08 C 383.67 63.61 383.61 100.14 383.65 136.67 C 347.05 136.67 310.45 136.67 273.85 136.67 C 286.72 123.87 299.49 110.95 312.45 98.24 C 299.63 85.91 284.68 75.85 268.68 68.13 C 257.27 63.01 245.28 59.19 233.01 56.78 C 217.19 54.41 200.98 53.29 185.10 55.80 C 177.20 56.51 169.49 58.48 161.90 60.73 C 129.83 70.06 101.43 90.79 82.11 117.96 C 66.06 140.46 56.39 167.49 54.62 195.07 C 51.58 236.17 66.46 278.25 94.84 308.14 C 120.91 336.65 158.50 354.10 197.03 356.09 C 207.60 356.53 218.19 356.10 228.65 354.52 C 254.22 350.63 278.60 339.73 298.89 323.73 C 319.17 307.52 335.48 286.20 345.13 262.05 C 350.54 248.63 354.12 234.46 355.40 220.03 C 356.49 214.05 355.70 207.93 356.54 201.92 C 357.74 191.05 366.20 181.27 376.94 178.86 C 383.27 177.43 390.19 177.93 396.01 180.92 C 404.40 184.90 409.96 193.64 411.00 202.76 L 411.00 213.72 C 410.60 219.46 410.08 225.19 409.55 230.92 C 405.26 265.84 391.65 299.51 370.73 327.77 C 357.16 345.99 340.61 361.98 321.93 374.90 C 291.11 395.99 254.56 409.11 217.15 410.73 L 220.89 411.00 L 195.58 411.00 C 173.17 409.81 150.86 405.34 130.01 396.96 C 87.14 380.18 50.32 348.56 27.23 308.74 C 15.48 288.42 7.00 266.13 2.84 243.00 C 1.35 236.42 1.04 229.65 0.00 223.00 L 0.00 189.25 C 3.53 142.47 23.69 97.07 56.31 63.31 C 90.57 26.70 138.90 3.96 188.82 0.09 L 186.70 0.00 Z" />
</g>
</svg>
