<?xml version="1.0" encoding="UTF-8" ?>
<!DOCTYPE svg PUBLIC "-//W3C//DTD SVG 1.1//EN" "http://www.w3.org/Graphics/SVG/1.1/DTD/svg11.dtd">
<svg width="411pt" height="411pt" viewBox="0 0 411 411" version="1.1" xmlns="http://www.w3.org/2000/svg">
<g id="#26272bff">
</g>
<g id="#ffffffff">
<path fill="#ffffff" opacity="1.00" d=" M 26.95 62.66 C 86.27 42.04 145.64 21.51 205.04 1.14 C 264.70 21.01 324.12 42.20 383.74 62.42 C 383.88 115.28 383.86 168.16 383.75 221.03 C 379.05 271.55 355.35 321.37 314.99 353.01 C 282.26 378.49 244.45 397.56 205.04 410.12 C 146.86 389.51 86.17 359.46 53.66 304.40 C 36.63 273.95 25.54 239.15 27.05 203.99 C 26.98 156.88 27.17 109.77 26.95 62.66 M 81.97 101.64 C 82.06 140.77 81.94 179.90 82.02 219.02 C 86.25 252.27 100.67 285.37 126.72 307.26 C 149.92 326.60 177.19 340.47 205.02 351.82 C 230.31 342.40 254.63 329.47 276.46 313.45 C 312.04 287.63 331.23 242.41 329.00 198.99 C 329.00 166.56 328.99 134.12 329.01 101.68 C 287.68 87.53 246.47 72.71 205.02 59.17 C 163.95 73.14 122.96 87.43 81.97 101.64 Z" />
<path fill="#ffffff" opacity="1.00" d=" M 254.41 144.99 C 267.54 157.72 280.59 170.73 293.20 183.95 C 259.60 218.03 225.48 251.63 191.76 285.59 C 166.93 260.85 142.18 236.05 117.40 211.26 C 130.35 198.40 143.27 185.50 156.14 172.55 C 168.15 184.25 179.84 196.27 191.78 208.03 C 212.55 186.91 233.87 166.32 254.41 144.99 Z" />
</g>
</svg>
