<?xml version="1.0" encoding="UTF-8" ?>
<!DOCTYPE svg PUBLIC "-//W3C//DTD SVG 1.1//EN" "http://www.w3.org/Graphics/SVG/1.1/DTD/svg11.dtd">
<svg width="411pt" height="411pt" viewBox="0 0 411 411" version="1.1" xmlns="http://www.w3.org/2000/svg">
<g id="#26272bff">
</g>
<g id="#ffffffff">
<path fill="#ffffff" opacity="1.00" d=" M 222.75 34.81 C 255.88 20.26 296.92 26.95 323.73 51.24 C 348.48 72.41 360.41 107.11 354.74 139.07 C 349.80 169.37 329.25 196.62 301.40 209.57 C 301.27 249.37 301.46 289.17 301.30 328.96 C 301.04 346.40 294.15 365.28 278.45 374.48 C 263.53 384.19 245.08 383.64 228.00 383.35 C 167.99 383.08 104.10 378.68 51.00 348.11 C 35.36 338.48 27.61 319.88 27.43 302.02 C 27.31 269.73 27.42 237.44 27.37 205.15 C 11.75 193.50 1.89 175.02 0.00 155.71 L 0.00 148.00 C 0.13 106.68 43.24 73.11 83.31 83.58 C 118.94 90.40 143.52 128.86 135.62 164.12 C 148.30 164.15 160.98 164.11 173.65 164.14 C 149.84 117.12 173.67 54.10 222.75 34.81 M 252.32 82.47 C 231.11 86.21 215.47 108.63 219.73 129.86 C 222.76 152.33 246.97 168.33 268.91 163.11 C 292.55 158.73 307.84 131.48 299.04 109.00 C 292.49 90.40 271.79 78.21 252.32 82.47 M 82.25 218.76 C 82.41 246.92 81.80 275.20 82.56 303.29 C 133.12 327.99 191.39 329.25 246.61 328.52 C 246.55 291.94 246.63 255.36 246.57 218.78 C 191.80 218.81 137.02 218.86 82.25 218.76 Z" />
<path fill="#ffffff" opacity="1.00" d=" M 356.11 232.72 C 374.36 214.32 392.86 196.17 411.00 177.67 L 411.00 369.69 C 392.77 351.34 374.41 333.11 356.14 314.79 C 356.11 287.44 356.17 260.08 356.11 232.72 Z" />
</g>
</svg>
