<?xml version="1.0" encoding="utf-8"?>
<!-- Generator: Adobe Illustrator 21.0.0, SVG Export Plug-In . SVG Version: 6.00 Build 0)  -->
<svg version="1.1" id="Capa_1" xmlns="http://www.w3.org/2000/svg" xmlns:xlink="http://www.w3.org/1999/xlink" x="0px" y="0px"
	 viewBox="0 0 411 411" style="enable-background:new 0 0 411 411;" xml:space="preserve">
<style type="text/css">
	.st0{fill:none;}
	.st1{fill:#75AADB;}
	.st2{fill:#FFFFFF;}
</style>
<g transform="translate(215 -1233)">
	<rect x="-215" y="1233" class="st0" width="411" height="411"/>
	<path class="st1" d="M-67.2,1366.2c61.8-23.7,96.5-17.6,149.9-42.7s89.9-90.5,89.9-90.5s-157.1,23.6-218.8,55.1
		c-61.7,31.4-79.4,57.9-94.1,94.6c-14.7,36.8-15.1,68.5-15.1,68.5S-129,1389.9-67.2,1366.2z"/>
	<path class="st2" d="M-85.6,1463.4c56.2-24.5,57.3-14.4,73.5-29.7c16.3-15.3,22.2-67.7,22.2-67.7s-32.7,3.6-75.7,18.3
		c-43,14.7-72,53.6-90.1,90.1s-18.1,71.9-18.1,71.9S-141.8,1487.8-85.6,1463.4z"/>
	<path class="st1" d="M-102.5,1553c44.5-19.6,39.5-8,73-17.9c33.5-9.9,89.9-90.5,89.9-90.5s-48.8,10.9-109.2,23.9
		s-108.4,66.8-125.2,102.3s-18.1,73.2-18.1,73.2S-147,1572.6-102.5,1553z"/>
</g>
</svg>
