<svg width="411pt" height="411pt" viewBox="0 0 411 411" version="1.1" xmlns="http://www.w3.org/2000/svg"><path d=" M 196.78 0.00 L 212.77 0.00 C 240.18 2.77 265.24 18.80 280.62 41.44 C 315.00 90.33 306.10 166.24 257.02 202.13 C 228.03 224.37 185.13 224.98 155.53 203.57 C 112.13 173.46 98.32 111.79 117.91 63.95 C 130.49 30.73 160.97 4.09 196.78 0.00 M 198.39 55.49 C 188.47 57.63 180.58 64.87 174.88 72.93 C 157.76 98.25 160.65 137.25 184.86 157.17 C 196.53 167.19 215.13 166.81 226.51 156.52 C 252.32 134.18 253.23 89.64 229.51 65.49 C 221.66 57.24 209.66 52.77 198.39 55.49 Z" /><path d=" M 98.45 283.52 C 127.69 264.49 160.74 249.66 195.94 247.22 C 243.20 244.16 288.02 265.64 325.42 292.71 C 354.13 313.47 380.05 337.97 403.29 364.68 C 407.34 369.05 409.75 374.62 411.00 380.39 L 411.00 387.59 C 409.47 398.88 400.66 408.59 389.51 411.00 L 377.77 411.00 C 369.23 409.17 362.98 402.75 357.85 396.11 C 328.48 363.70 295.07 333.77 255.41 314.59 C 236.51 305.72 215.37 299.63 194.35 302.52 C 176.38 304.79 159.40 311.87 143.60 320.48 C 108.88 339.96 78.90 366.94 52.43 396.47 C 47.43 403.07 41.09 409.23 32.69 411.00 L 21.14 411.00 C 10.71 408.73 2.05 400.16 0.00 389.63 L 0.00 378.51 C 1.27 373.55 3.50 368.80 7.00 365.01 C 33.78 334.07 64.27 306.13 98.45 283.52 Z" /></svg>