<svg version="1.1" id="Capa_1" xmlns="http://www.w3.org/2000/svg" xmlns:xlink="http://www.w3.org/1999/xlink" x="0px" y="0px"
	 viewBox="-50 51 411 411" style="enable-background:new -50 51 411 411;" xml:space="preserve">
<style type="text/css">
	.st0{fill:none;}
</style>
<g>
	<path class="st0" d="M148.4,106.5c-9.9,2.1-17.8,9.4-23.5,17.4c-15.6,23.1-14.6,57.4,4,78.5l50.9-85.6c-0.1-0.1-0.2-0.2-0.3-0.3
		C171.7,108.2,159.7,103.8,148.4,106.5z"/>
	<path d="M48.5,334.5C14.3,357.1-16.2,385.1-43,416c-3.5,3.8-5.7,8.5-7,13.5v11.1c2,10.5,10.7,19.1,21.1,21.4h3.2l77-129.3
		C50.4,333.3,49.4,333.9,48.5,334.5z"/>
	<path d="M353.3,415.7c-23.2-26.7-49.2-51.2-77.9-72c-28.6-20.7-61.6-38.1-96.6-43.8L147,353.2c20.1-2,40.3,3.9,58.4,12.4
		c39.7,19.2,73.1,49.1,102.4,81.5c5.1,6.6,11.4,13.1,19.9,14.9h11.7c11.2-2.4,20-12.1,21.5-23.4v-7.2
		C359.8,425.6,357.3,420,353.3,415.7z"/>
	<path d="M207,253.1c23.7-17.3,38-43.9,42.6-72.3l-43.3,72.8C206.5,253.5,206.8,253.3,207,253.1z"/>
	<path d="M124.9,123.9c5.7-8.1,13.6-15.3,23.5-17.4c11.3-2.7,23.3,1.8,31.1,10c0.1,0.1,0.2,0.2,0.3,0.3l28.4-47.7
		C195,59.2,179.3,52.7,162.8,51h-16c-35.8,4.1-66.3,30.7-78.9,64c-18.8,45.8-6.9,104.3,32.3,135.6l28.7-48.2
		C110.3,181.4,109.3,147,124.9,123.9z"/>
</g>
<path d="M39.1,446.4L39.1,446.4c-12.1-7.2-16-22.9-8.9-35L219.8,92.9c7.2-12.1,22.9-16,35-8.9l0,0c12.1,7.2,16,22.9,8.9,35L74,437.6
	C66.8,449.6,51.1,453.6,39.1,446.4z"/>
</svg>
