<svg width="411pt" height="411pt" viewBox="0 0 411 411" version="1.1" xmlns="http://www.w3.org/2000/svg"><path d=" M 283.11 0.00 L 292.28 0.00 C 302.30 1.84 310.92 9.26 313.89 19.05 C 330.28 72.07 346.42 125.17 362.84 178.17 C 370.88 178.33 378.93 177.89 386.96 178.40 C 399.99 179.67 410.68 191.54 411.00 204.59 L 411.00 207.38 C 410.17 221.30 397.81 232.75 384.01 233.11 C 370.29 233.22 356.55 233.15 342.83 233.14 C 331.07 232.97 319.82 225.01 316.35 213.66 C 308.14 186.76 299.66 159.94 291.66 132.97 C 271.80 217.26 252.66 301.74 233.19 386.12 C 231.65 398.07 222.63 408.67 210.63 411.00 L 200.37 411.00 C 190.26 408.87 181.62 401.01 178.97 390.96 C 157.93 320.11 136.31 249.42 115.57 178.49 C 107.65 191.99 100.02 205.66 92.22 219.24 C 87.12 227.98 77.15 233.26 67.10 233.18 C 53.41 233.02 39.71 233.37 26.03 233.02 C 12.18 232.28 0.11 220.20 0.00 206.18 L 0.00 203.62 C 0.96 190.68 11.80 179.13 24.90 178.33 C 34.07 178.00 43.25 178.24 52.42 178.21 C 68.32 150.76 83.87 123.10 99.67 95.60 C 104.71 87.33 114.10 81.56 123.94 82.18 C 135.51 82.19 146.22 90.52 149.52 101.53 C 167.10 160.01 184.51 218.55 202.15 277.01 C 221.49 191.66 241.44 106.44 260.96 21.13 C 263.32 10.38 272.38 2.07 283.11 0.00 Z" /></svg>