<svg width="411pt" height="411pt" viewBox="0 0 411 411" version="1.1" xmlns="http://www.w3.org/2000/svg">
<g id="#26272bff">
</g>
<g id="#ffffffff">
<path fill="#ffffff" opacity="1.00" d=" M 194.35 0.00 L 213.46 0.00 C 251.30 1.94 272.65 41.59 271.45 76.01 C 271.16 119.66 271.58 163.33 271.25 206.98 C 269.91 229.71 258.84 253.29 237.76 263.84 C 216.90 273.79 190.97 273.52 170.60 262.43 C 149.36 250.09 139.42 224.70 139.54 201.00 C 140.04 156.39 139.01 111.74 140.04 67.16 C 141.37 35.84 162.48 2.89 195.93 0.01 L 194.35 0.00 M 204.39 32.52 C 183.44 31.18 173.18 53.15 172.68 71.03 C 172.33 115.00 172.72 159.00 172.50 202.97 C 173.11 214.67 176.65 228.52 187.99 234.23 C 199.70 239.75 214.54 239.57 225.65 232.67 C 235.27 225.84 238.05 213.10 238.52 201.98 C 238.36 161.65 238.45 121.32 238.48 80.99 C 240.41 59.87 230.66 29.74 204.39 32.52 Z" />
<path fill="#ffffff" opacity="1.00" d=" M 66.51 251.39 C 59.67 234.06 86.56 221.55 95.75 237.32 C 114.62 275.01 153.86 301.99 196.32 303.54 C 244.54 308.40 293.42 281.50 314.79 237.99 C 323.46 221.42 351.44 233.59 344.47 251.37 C 322.30 298.49 273.79 332.07 221.78 336.21 C 221.92 355.84 221.68 375.48 221.94 395.09 C 221.74 403.16 214.92 409.76 207.17 411.00 L 207.22 411.00 C 198.18 411.76 189.38 404.37 189.05 395.22 C 189.34 375.58 189.04 355.87 189.24 336.20 C 137.34 331.74 88.67 298.60 66.51 251.39 Z" />
</g>
</svg>
