<svg width="411pt" height="411pt" viewBox="0 0 411 411" version="1.1" xmlns="http://www.w3.org/2000/svg">
<g id="#26272bff">
</g>
<g id="#ffffffff">
<path fill="#ffffff" opacity="1.00" d=" M 22.01 0.00 L 387.80 0.00 C 399.15 1.59 408.65 10.70 411.00 21.87 L 411.00 278.42 C 408.78 290.69 397.67 301.07 384.99 301.18 C 293.80 301.19 202.60 301.15 111.40 301.20 C 74.82 337.84 38.30 374.54 1.54 411.00 L 0.00 411.00 L 0.00 25.41 C 0.68 13.17 10.23 2.74 22.01 0.00 M 41.19 40.75 C 41.11 132.17 41.18 223.60 41.15 315.03 C 59.50 296.71 77.82 278.37 96.12 260.00 C 187.50 260.12 278.88 260.13 370.26 260.10 C 370.20 187.00 370.27 113.89 370.23 40.78 C 260.55 40.76 150.87 40.83 41.19 40.75 Z" />
</g>
</svg>
