<?xml version="1.0" encoding="UTF-8" ?>
<!DOCTYPE svg PUBLIC "-//W3C//DTD SVG 1.1//EN" "http://www.w3.org/Graphics/SVG/1.1/DTD/svg11.dtd">
<svg width="411pt" height="411pt" viewBox="0 0 411 411" version="1.1" xmlns="http://www.w3.org/2000/svg">
<g id="#26272bff">
</g>
<g id="#ffffffff">
<path fill="#ffffff" opacity="1.00" d=" M 22.99 0.00 L 387.89 0.00 C 399.05 1.94 408.59 10.58 411.00 21.75 L 411.00 137.00 C 392.87 137.00 374.73 137.00 356.60 137.00 C 356.66 118.72 356.60 100.45 356.63 82.17 C 255.95 82.19 155.27 82.21 54.59 82.16 C 54.65 137.07 54.60 191.97 54.61 246.87 C 91.07 246.89 127.54 246.72 163.99 246.95 C 182.72 264.76 200.60 283.57 219.15 301.63 C 154.43 301.55 89.71 301.63 24.99 301.59 C 12.76 301.05 2.42 290.97 0.00 279.19 L 0.00 23.09 C 1.85 11.40 11.54 2.24 22.99 0.00 M 63.94 54.23 C 120.92 55.49 178.08 54.69 235.11 54.63 C 249.83 53.07 250.40 29.52 235.61 27.55 C 179.08 27.26 122.51 27.30 65.97 27.54 C 52.27 29.22 51.00 50.11 63.94 54.23 M 274.90 36.97 C 271.23 47.01 282.16 57.71 292.19 54.36 C 300.82 51.26 304.90 39.61 298.63 32.43 C 292.42 23.92 277.49 26.75 274.90 36.97 M 329.78 37.08 C 326.14 47.15 337.19 57.75 347.20 54.35 C 355.73 51.17 359.76 39.62 353.54 32.46 C 347.37 23.85 332.26 26.78 329.78 37.08 Z" />
<path fill="#ffffff" opacity="1.00" d=" M 136.99 164.60 C 228.32 164.56 319.66 164.48 410.99 164.63 C 375.06 201.57 338.00 237.48 301.83 274.20 C 301.49 319.76 301.65 365.41 301.76 411.00 L 301.03 411.00 C 282.93 392.94 264.96 374.74 246.79 356.75 C 246.72 329.30 246.71 301.86 246.79 274.42 C 210.22 237.78 173.60 201.20 136.99 164.60 Z" />
<path fill="#ffffff" opacity="1.00" d=" M 329.31 301.64 C 356.46 274.30 383.91 247.26 411.00 219.87 L 411.00 279.72 C 408.61 291.45 398.06 301.02 386.02 301.59 C 367.12 301.63 348.21 301.55 329.31 301.64 Z" />
</g>
</svg>
