<svg width="411pt" height="411pt" viewBox="0 0 411 411" version="1.1" xmlns="http://www.w3.org/2000/svg">
<g id="#26272bff">
</g>
<g id="#ffffffff">
<path fill="#ffffff" opacity="1.00" d=" M 185.19 0.00 L 220.99 0.00 C 283.57 4.59 342.82 39.44 377.14 91.98 C 397.55 122.86 409.34 159.36 410.86 196.35 L 411.00 192.26 L 411.00 213.06 C 409.48 248.62 398.88 283.78 379.99 313.98 C 343.93 372.45 277.07 410.66 208.20 410.67 L 213.09 411.00 L 202.47 411.00 C 170.51 410.23 138.71 402.52 110.37 387.61 C 47.29 355.34 3.53 288.54 0.16 217.64 L 0.00 221.37 L 0.00 193.21 C 2.01 159.09 12.61 125.53 30.66 96.51 C 64.43 42.08 124.57 4.77 188.61 0.10 L 185.19 0.00 M 219.19 54.90 C 219.19 77.78 219.22 100.66 219.18 123.54 C 265.59 127.88 309.17 146.32 350.91 166.05 C 336.05 106.25 280.50 59.86 219.19 54.90 M 55.14 191.42 C 78.03 191.46 100.91 191.41 123.80 191.45 C 128.28 144.98 146.55 101.24 166.31 59.40 C 106.66 74.78 59.84 129.85 55.14 191.42 M 150.30 207.04 C 149.65 213.54 143.53 219.00 136.99 218.79 C 114.63 218.73 92.27 218.72 69.91 218.79 C 113.52 239.58 159.69 258.99 208.63 260.50 C 214.78 261.83 219.02 267.71 219.22 273.86 C 219.17 296.18 219.22 318.51 219.19 340.84 C 237.83 299.85 256.73 257.49 260.01 211.99 C 258.93 203.83 261.84 193.88 270.80 191.72 C 294.09 191.09 317.42 191.56 340.72 191.48 C 299.07 172.01 255.49 153.12 209.02 150.30 C 201.38 151.48 193.38 146.99 191.75 139.16 C 191.44 116.18 191.90 93.17 191.52 70.19 C 171.27 113.33 151.73 158.70 150.30 207.04 M 287.06 218.73 C 282.36 265.20 264.33 309.02 244.53 350.88 C 304.24 335.61 351.07 280.32 355.54 218.73 C 332.71 218.76 309.89 218.76 287.06 218.73 M 59.43 244.45 C 75.25 303.98 130.03 350.73 191.67 355.47 C 191.66 332.59 191.61 309.72 191.69 286.84 C 145.11 282.40 101.57 263.61 59.43 244.45 Z" />
</g>
</svg>
