<svg width="411pt" height="411pt" viewBox="0 0 411 411" version="1.1" xmlns="http://www.w3.org/2000/svg"><path d=" M 0.00 87.14 C 1.95 79.84 8.21 73.51 16.14 73.68 C 142.71 73.75 269.31 73.64 395.88 73.74 C 402.95 73.76 408.62 79.11 411.00 85.44 L 411.00 94.49 C 408.82 101.44 402.31 106.45 395.02 106.67 C 268.67 106.59 142.31 106.68 15.96 106.63 C 8.34 106.31 2.15 100.54 0.00 93.43 L 0.00 87.14 Z" /><path d=" M 0.00 202.61 C 1.70 194.84 8.89 188.52 17.01 188.90 C 78.05 189.07 139.12 188.72 200.15 189.08 C 218.10 191.27 217.96 219.64 200.03 221.69 C 138.69 222.16 77.28 221.72 15.92 221.91 C 8.27 221.70 1.89 215.65 0.00 208.46 L 0.00 202.61 Z" /><path d=" M 0.00 317.49 C 1.71 309.78 8.99 303.58 16.99 304.00 C 110.70 304.09 204.41 303.83 298.11 304.13 C 316.42 305.52 317.31 334.54 299.06 336.88 C 204.71 337.17 110.35 336.92 16.00 337.00 C 8.41 337.34 2.29 331.25 0.00 324.43 L 0.00 317.49 Z" /></svg>