<svg width="411pt" height="411pt" viewBox="0 0 411 411" version="1.1" xmlns="http://www.w3.org/2000/svg"><path d=" M 409.98 0.00 L 410.34 0.00 C 348.62 137.00 285.87 273.55 224.08 410.52 C 201.93 380.78 179.59 351.19 157.38 321.50 C 143.32 339.88 129.46 358.41 115.30 376.72 C 115.35 343.60 115.32 310.47 115.32 277.35 C 76.88 253.51 39.03 228.66 0.66 204.77 L 0.00 204.71 L 0.00 204.29 C 136.55 135.98 273.48 68.40 409.98 0.00 M 66.73 207.76 C 88.06 221.24 109.28 234.89 130.62 248.34 C 187.20 204.59 243.15 159.88 300.20 116.85 C 255.28 170.36 211.08 224.50 166.29 278.12 C 182.76 301.20 200.14 323.61 217.05 346.36 C 258.80 254.37 300.66 162.44 342.43 70.45 C 250.56 116.27 158.54 161.82 66.73 207.76 Z" /></svg>
