<svg width="411pt" height="411pt" viewBox="0 0 411 411" version="1.1" xmlns="http://www.w3.org/2000/svg">
<g id="#26272bff">
</g>
<g id="#ffffffff">
<path fill="#ffffff" opacity="1.00" d=" M 0.00 199.90 C 1.18 164.94 29.09 130.04 66.00 131.25 C 102.96 131.36 139.92 131.03 176.88 131.42 C 205.72 135.48 225.67 160.98 235.24 186.80 C 239.68 194.52 238.64 205.67 230.64 210.65 C 222.09 217.01 208.95 212.02 205.83 202.10 C 200.19 186.59 191.12 168.88 173.92 164.28 C 136.66 164.14 99.35 163.98 62.09 164.37 C 42.22 166.97 32.75 188.01 32.60 206.05 C 30.54 227.61 35.72 257.39 60.95 262.38 C 93.78 263.67 126.85 261.80 159.67 263.33 C 176.20 266.36 175.74 292.60 159.16 295.26 C 128.50 296.08 97.71 295.35 67.00 295.61 C 29.71 297.00 0.83 262.26 0.05 226.64 L 0.00 228.62 L 0.00 199.90 Z" />
<path fill="#ffffff" opacity="1.00" d=" M 254.39 164.14 C 234.28 164.85 232.81 132.10 252.96 131.35 C 286.60 131.51 320.35 130.53 353.95 131.85 C 391.16 136.94 411.92 175.56 411.00 210.39 L 411.00 210.33 C 410.94 231.89 407.35 254.99 393.27 272.18 C 380.88 287.64 360.74 296.44 341.00 295.61 C 308.99 295.57 276.98 295.65 244.98 295.57 C 213.59 293.32 184.51 271.17 174.97 240.99 C 170.71 232.76 171.14 220.97 179.92 215.90 C 189.06 209.84 202.55 215.55 204.79 226.24 C 209.44 246.07 227.59 261.57 247.93 262.77 C 280.65 262.79 313.38 262.78 346.10 262.78 C 358.91 261.62 370.13 252.19 373.93 239.93 C 379.20 223.15 379.24 204.58 374.20 187.73 C 370.57 175.19 359.28 165.07 346.06 164.20 C 315.51 164.09 284.94 164.23 254.39 164.14 Z" />
</g>
</svg>
