<svg width="411pt" height="411pt" viewBox="0 0 411 411" version="1.1" xmlns="http://www.w3.org/2000/svg"><path fill="#ffffff" opacity="1.00" d=" M 178.08 0.00 L 232.98 0.00 C 232.93 77.63 233.07 155.27 232.91 232.90 C 214.65 232.99 196.39 233.03 178.13 232.88 C 178.06 155.26 178.16 77.63 178.08 0.00 Z" /><path fill="#ffffff" opacity="1.00" d=" M 17.50 181.36 C 29.29 118.97 76.64 65.55 135.50 43.32 C 142.37 60.12 149.47 76.86 156.04 93.77 C 132.72 103.63 111.18 118.51 95.72 138.77 C 55.66 188.24 61.37 265.71 104.65 311.38 C 147.69 360.57 227.41 370.63 281.09 333.17 C 336.43 297.94 359.46 219.78 329.04 161.03 C 313.69 130.58 286.86 106.39 255.22 93.79 C 261.88 76.90 268.69 60.06 275.48 43.23 C 321.24 60.94 359.68 97.08 380.40 141.61 C 404.55 193.22 402.40 255.73 376.23 306.17 C 346.48 365.82 283.81 406.37 217.59 411.00 L 193.54 411.00 C 146.67 407.22 101.00 386.82 68.33 352.67 C 24.48 308.57 5.11 242.20 17.50 181.36 Z" /></svg>
