<svg width="411pt" height="411pt" viewBox="0 0 411 411" version="1.1" xmlns="http://www.w3.org/2000/svg"><path d=" M 159.28 0.00 L 251.24 0.00 C 254.45 12.14 257.24 24.41 260.49 36.54 C 269.15 40.36 278.11 43.50 286.80 47.26 C 299.14 41.10 311.42 34.80 323.86 28.81 C 343.08 48.16 362.43 67.38 381.68 86.70 C 375.65 98.93 369.35 111.06 363.46 123.35 C 366.33 132.37 370.47 141.10 373.83 150.00 C 386.22 153.09 398.59 156.25 411.00 159.26 L 411.00 250.84 C 398.62 253.79 386.33 257.13 373.92 259.98 C 370.43 268.87 366.52 277.66 363.43 286.68 C 369.30 299.04 375.68 311.18 381.68 323.49 C 362.38 342.72 343.14 362.02 323.87 381.28 C 311.47 375.43 299.42 368.81 286.96 363.11 C 277.96 366.12 269.29 370.16 260.39 373.49 C 257.05 385.96 254.60 398.71 250.65 410.99 L 252.10 411.00 L 159.88 411.00 C 156.28 398.69 153.73 386.07 150.28 373.73 C 141.68 369.84 132.80 366.43 123.95 363.12 C 111.44 368.72 99.39 375.40 86.99 381.29 C 67.68 362.05 48.48 342.69 29.11 323.50 C 35.12 311.27 41.39 299.16 47.32 286.89 C 44.36 277.92 40.59 268.99 36.78 260.29 C 24.68 256.63 12.18 254.22 0.00 250.75 L 0.00 159.20 C 12.37 156.19 24.74 153.13 37.06 149.91 C 40.20 140.90 44.72 132.21 47.28 123.11 C 41.29 110.86 35.06 98.73 29.05 86.48 C 48.43 67.32 67.80 48.14 87.00 28.80 C 99.45 34.62 111.46 41.46 124.03 46.92 C 132.89 43.70 141.78 40.27 150.35 36.33 C 153.35 24.24 156.66 12.19 159.28 0.00 M 185.28 32.25 C 182.98 41.83 180.54 51.37 178.12 60.92 C 159.40 68.17 140.93 76.32 122.04 82.97 C 112.38 78.47 103.01 73.32 93.34 68.84 C 85.46 77.11 77.01 84.89 69.25 93.26 C 73.84 102.90 78.67 112.44 83.57 121.94 C 76.10 140.66 68.74 159.44 61.04 178.07 C 51.55 180.03 42.24 182.81 32.78 184.91 C 32.75 198.30 32.80 211.70 32.75 225.09 C 42.19 227.51 51.62 229.93 61.11 232.14 C 68.74 250.72 76.02 269.43 83.57 288.04 C 78.71 297.64 73.95 307.29 69.10 316.90 C 77.25 325.09 85.35 333.33 93.64 341.37 C 103.07 336.51 112.57 331.76 122.10 327.12 C 140.96 333.90 159.50 341.92 178.21 349.27 C 180.56 358.81 183.06 368.32 185.32 377.88 C 198.64 377.91 211.97 377.75 225.30 377.96 C 227.81 368.45 230.18 358.90 232.45 349.33 C 250.94 341.70 269.61 334.52 288.12 326.93 C 297.93 331.50 307.58 336.43 317.19 341.42 C 325.40 333.37 333.45 325.15 341.63 317.06 C 337.00 307.32 331.72 297.82 327.35 288.00 C 334.56 269.43 342.00 250.91 349.49 232.44 C 358.89 229.68 368.52 227.66 378.00 225.14 C 378.00 211.72 378.00 198.30 378.00 184.88 C 368.51 182.55 358.82 180.43 349.54 177.63 C 342.01 159.14 334.48 140.61 327.34 121.99 C 331.84 112.23 337.05 102.78 341.60 93.03 C 333.25 85.25 325.61 76.24 316.96 69.07 C 307.31 73.67 297.83 78.65 288.21 83.34 C 269.90 75.59 251.25 68.60 232.89 60.96 C 229.96 51.60 227.92 41.87 225.53 32.31 C 212.11 32.21 198.69 32.34 185.28 32.25 Z" /><path d=" M 197.37 131.52 C 232.57 126.92 268.35 151.48 276.83 185.91 C 290.19 229.35 254.47 278.46 209.00 278.84 C 160.96 283.28 119.68 232.19 133.88 186.09 C 141.15 157.10 167.62 134.34 197.37 131.52 M 199.25 164.40 C 173.36 167.22 156.44 197.89 167.55 221.40 C 176.88 244.93 209.45 254.11 229.45 238.41 C 247.12 226.33 252.02 199.84 239.69 182.32 C 231.08 169.21 214.80 161.74 199.25 164.40 Z" /></svg>