<svg width="658pt" height="411pt" viewBox="0 0 658 411" version="1.1" xmlns="http://www.w3.org/2000/svg">
<g id="#26272bff">
</g>
<g id="#535457ff">
<path fill="#535457" opacity="1.00" d=" M 181.92 0.00 L 226.64 0.00 C 305.57 8.20 376.95 65.18 400.82 141.07 C 424.24 210.10 407.14 291.04 357.31 344.35 C 323.89 382.10 275.86 405.11 226.07 411.00 L 186.32 411.00 C 112.31 404.44 44.19 355.00 15.83 286.23 C 7.36 267.48 3.29 247.24 0.00 227.05 L 0.00 185.23 C 7.22 112.24 55.61 44.99 123.33 16.37 C 141.78 7.52 161.93 3.56 181.92 0.00 M 189.25 41.40 C 143.96 45.28 101.17 69.55 74.12 105.94 C 45.78 142.46 34.57 191.37 43.45 236.66 C 53.63 291.43 93.64 339.49 145.70 359.35 C 185.59 375.06 231.69 373.83 270.95 356.78 C 316.86 337.15 352.26 295.21 364.81 246.99 C 379.65 192.35 363.07 130.86 323.33 90.66 C 289.45 54.63 238.37 36.14 189.25 41.40 Z" />
<path fill="#535457" opacity="1.00" d=" M 527.98 0.00 L 569.11 0.00 C 569.13 29.53 569.02 59.05 569.16 88.58 C 598.77 88.55 628.39 88.51 658.00 88.60 L 658.00 130.03 C 628.38 129.98 598.74 129.98 569.12 130.09 C 569.04 159.77 569.15 189.44 569.07 219.12 C 555.38 219.20 541.69 219.22 528.00 219.11 C 527.94 189.41 528.08 159.70 527.93 130.00 C 498.25 129.93 468.57 130.02 438.90 130.00 C 438.78 116.21 438.85 102.42 438.86 88.63 C 468.55 88.46 498.25 88.59 527.94 88.56 C 528.05 59.04 527.98 29.52 527.98 0.00 Z" />
<path fill="#535457" opacity="1.00" d=" M 125.33 137.43 C 142.04 132.67 156.66 153.10 147.51 167.58 C 141.00 179.52 122.85 181.44 114.26 170.73 C 103.87 160.04 110.60 139.79 125.33 137.43 Z" />
<path fill="#535457" opacity="1.00" d=" M 276.33 137.44 C 291.80 133.12 306.32 150.44 299.73 164.99 C 295.00 177.97 276.52 182.35 266.78 172.23 C 254.51 162.16 260.75 139.95 276.33 137.44 Z" />
<path fill="#535457" opacity="1.00" d=" M 125.19 247.33 C 135.17 244.89 144.75 250.96 149.59 259.42 C 179.16 291.84 235.67 286.20 264.10 255.05 C 270.09 247.18 281.82 244.42 290.52 249.33 C 300.93 254.22 304.26 268.71 298.28 278.21 C 254.60 334.68 154.45 339.39 112.43 278.61 C 104.51 267.29 111.63 249.89 125.19 247.33 Z" />
</g>
</svg>
