<svg width="411pt" height="411pt" viewBox="0 0 411 411" version="1.1" xmlns="http://www.w3.org/2000/svg"><path d=" M 0.00 0.00 L 0.41 0.00 C 0.31 0.10 0.10 0.31 0.00 0.42 L 0.00 0.00 Z" /><path d=" M 201.48 0.00 L 210.53 0.00 C 224.70 3.59 235.05 17.21 233.13 32.00 C 233.10 80.65 232.86 129.32 233.24 177.96 C 283.99 178.92 334.84 177.92 385.62 178.44 C 397.99 178.79 408.18 188.78 411.00 200.46 L 411.00 211.48 C 407.87 223.11 397.38 232.78 385.06 233.07 C 334.48 233.36 283.86 232.85 233.29 233.31 C 232.75 283.54 233.21 333.82 233.07 384.06 C 233.29 396.81 223.48 407.80 211.48 411.00 L 200.45 411.00 C 187.65 408.11 177.85 396.11 178.32 382.86 C 178.06 333.01 178.85 283.09 177.94 233.28 C 127.63 232.90 77.27 233.33 26.95 233.08 C 13.94 233.03 3.28 222.64 0.00 210.53 L 0.00 200.55 C 3.70 189.01 13.41 178.49 26.25 178.40 C 76.81 177.98 127.44 178.87 177.97 177.97 C 178.85 127.77 178.01 77.48 178.37 27.25 C 178.28 13.84 188.93 3.06 201.48 0.00 Z" /></svg>