<svg width="411pt" height="411pt" viewBox="0 0 411 411" version="1.1" xmlns="http://www.w3.org/2000/svg">
<g id="#26272bff">
</g>
<g id="#ffffffff">
<path fill="#ffffff" opacity="1.00" d=" M 192.37 0.00 L 216.45 0.00 C 238.41 1.40 260.31 7.80 278.56 20.28 C 310.52 41.74 326.78 80.49 328.63 117.97 C 328.82 133.45 328.73 148.94 328.68 164.42 C 338.41 164.44 348.14 164.25 357.87 164.52 C 371.81 165.17 383.94 177.89 383.57 191.93 C 383.64 255.98 383.64 320.03 383.57 384.07 C 383.81 396.93 373.80 408.57 361.30 411.00 L 49.16 411.00 C 36.63 408.52 26.50 396.97 26.88 383.99 C 26.77 320.66 26.87 257.33 26.83 194.00 C 26.71 186.98 28.42 179.65 33.23 174.33 C 45.15 159.81 65.48 165.48 81.74 164.42 C 81.67 131.39 79.12 96.70 94.18 66.13 C 110.25 26.90 150.90 2.41 192.37 0.00 M 154.67 72.70 C 131.55 97.49 137.24 133.50 136.55 164.44 C 182.34 164.34 228.12 164.40 273.91 164.41 C 273.59 132.09 278.98 93.09 251.99 69.14 C 224.55 48.46 180.06 48.61 154.67 72.70 M 154.51 239.62 C 142.09 267.23 158.04 303.39 187.19 312.01 C 184.75 331.50 180.53 350.77 177.98 370.26 C 196.22 370.29 214.45 370.25 232.68 370.28 C 229.57 350.94 226.02 331.66 223.17 312.29 C 246.35 304.76 262.39 280.23 259.85 255.99 C 258.57 237.17 246.62 219.63 229.65 211.44 C 202.53 196.90 165.36 210.85 154.51 239.62 Z" />
</g>
</svg>
