<svg width="411pt" height="411pt" viewBox="0 0 411 411" version="1.1" xmlns="http://www.w3.org/2000/svg">
<g id="#26272bff">
</g>
<g id="#ffffffff">
<path fill="#ffffff" opacity="1.00" d=" M 309.11 36.03 C 319.68 23.98 340.67 24.89 350.43 37.52 C 384.78 79.79 405.83 132.60 411.00 186.67 L 411.00 224.76 C 406.23 277.49 385.78 328.61 353.34 370.45 C 346.40 381.32 332.12 387.06 319.82 382.40 C 303.36 377.36 296.30 355.22 306.36 341.35 C 343.50 295.73 363.61 234.78 354.17 176.06 C 348.03 137.74 331.48 101.04 306.95 70.98 C 299.17 60.75 300.17 45.25 309.11 36.03 Z" />
<path fill="#ffffff" opacity="1.00" d=" M 54.70 137.10 C 81.99 109.53 109.49 82.15 136.97 54.77 C 137.02 155.41 137.02 256.05 136.97 356.68 C 109.49 329.33 82.00 301.98 54.74 274.41 C 34.90 274.93 5.43 277.94 0.00 252.45 L 0.00 159.16 C 5.41 133.71 34.79 136.29 54.70 137.10 Z" />
<path fill="#ffffff" opacity="1.00" d=" M 217.36 82.46 C 225.44 81.80 233.57 85.01 239.30 90.69 C 261.41 112.00 276.96 140.00 283.85 169.88 C 296.73 224.64 278.44 285.78 236.31 323.33 C 225.28 332.46 207.40 330.73 198.37 319.61 C 188.69 308.77 190.15 290.55 201.19 281.19 C 238.04 246.76 243.58 184.95 213.39 144.55 C 207.38 134.34 195.44 128.18 192.62 116.11 C 188.28 100.43 200.97 82.79 217.36 82.46 Z" />
</g>
</svg>
