<?xml version="1.0" encoding="UTF-8" ?>
<!DOCTYPE svg PUBLIC "-//W3C//DTD SVG 1.1//EN" "http://www.w3.org/Graphics/SVG/1.1/DTD/svg11.dtd">
<svg width="411pt" height="411pt" viewBox="0 0 411 411" version="1.1" xmlns="http://www.w3.org/2000/svg">
<g id="#26272bff">
</g>
<g id="#ffffffff">
<path fill="#ffffff" opacity="1.00" d=" M 22.04 54.93 C 34.17 52.40 47.24 59.69 52.07 70.98 C 57.59 82.71 52.90 98.00 41.89 104.77 C 33.15 110.75 20.80 110.72 12.06 104.78 C 5.68 100.87 1.49 94.08 0.00 86.82 L 0.00 76.90 C 2.00 65.97 11.14 56.94 22.04 54.93 Z" />
<path fill="#ffffff" opacity="1.00" d=" M 136.70 166.53 C 164.57 138.90 192.27 111.11 220.03 83.37 C 264.65 132.31 309.17 181.34 353.75 230.31 C 354.93 231.59 356.07 232.90 357.20 234.23 C 361.79 230.48 365.25 225.34 370.67 222.64 C 378.35 218.25 388.17 218.06 396.02 222.12 C 403.93 225.85 409.27 233.78 410.99 242.22 L 411.00 240.26 L 411.00 250.08 C 410.36 254.42 408.90 258.69 406.29 262.25 C 403.62 266.20 399.92 269.25 396.62 272.64 C 388.65 280.65 380.53 288.53 372.69 296.68 C 365.02 304.14 356.45 310.65 347.43 316.41 C 327.38 329.37 304.69 338.38 281.04 341.89 C 270.50 344.01 259.68 343.73 249.00 343.26 C 244.73 342.95 240.54 342.06 236.30 341.55 C 219.88 338.78 204.43 332.17 188.19 328.63 C 172.38 325.10 155.84 327.47 140.62 332.50 C 121.01 339.02 103.31 350.30 87.33 363.23 C 80.06 368.94 73.95 375.91 67.34 382.34 C 60.49 389.17 53.66 396.02 46.78 402.83 C 42.56 406.99 37.18 409.78 31.39 411.00 L 22.39 411.00 C 14.64 409.28 7.32 404.68 3.36 397.67 C 1.75 394.99 0.86 391.98 0.00 389.00 L 0.00 378.69 C 1.30 372.66 4.56 367.18 9.01 362.95 C 17.51 354.80 25.53 346.16 34.19 338.19 C 42.11 329.10 51.50 321.40 61.08 314.15 C 76.16 302.50 92.67 292.67 110.22 285.26 C 134.86 274.76 162.13 269.91 188.83 273.04 C 207.99 275.47 225.95 282.98 244.68 287.28 C 247.74 288.08 250.90 288.40 254.05 288.52 C 276.07 289.72 298.15 282.88 316.53 270.92 C 283.70 234.94 250.94 198.89 218.24 162.80 C 191.02 189.91 163.91 217.14 136.74 244.30 C 123.13 230.45 109.25 216.86 95.68 202.98 C 79.21 219.39 62.84 235.91 46.35 252.29 C 39.70 258.83 29.75 261.67 20.68 259.45 C 10.39 257.27 2.23 248.40 0.02 238.23 L 0.00 239.98 L 0.00 227.50 C 1.60 220.62 5.76 214.64 10.99 209.99 C 39.22 181.83 67.43 153.65 95.59 125.41 C 109.27 139.14 123.01 152.81 136.70 166.53 Z" />
</g>
</svg>
