<svg width="411pt" height="411pt" viewBox="0 0 411 411" version="1.1" xmlns="http://www.w3.org/2000/svg">
<g id="#26272bff">
</g>
<g id="#ffffffff">
<path fill="#ffffff" opacity="1.00" d=" M 280.81 0.00 L 300.37 0.00 C 339.60 3.60 361.85 39.27 388.58 63.48 C 401.09 76.45 408.98 93.63 411.00 111.52 L 411.00 129.38 C 408.55 164.07 379.50 186.12 357.03 208.91 C 333.15 232.15 294.57 238.43 264.72 223.44 C 292.34 195.46 320.62 168.18 348.25 140.22 C 358.88 130.44 359.52 112.02 349.22 101.79 C 336.06 88.27 322.67 74.95 309.29 61.65 C 299.23 51.87 281.77 51.89 271.75 61.71 C 243.20 89.48 215.50 118.11 187.09 146.02 C 172.98 116.23 178.56 78.32 201.56 54.51 C 224.50 32.15 246.07 2.70 280.81 0.00 Z" />
<path fill="#ffffff" opacity="1.00" d=" M 272.28 109.41 C 297.95 106.62 311.70 142.82 291.31 158.28 C 246.19 203.22 201.17 248.28 156.10 293.26 C 146.03 303.49 127.85 303.52 117.87 293.15 C 106.86 282.97 107.24 264.22 117.93 253.95 C 162.53 209.55 206.95 164.95 251.54 120.53 C 256.85 114.55 264.10 109.86 272.28 109.41 Z" />
<path fill="#ffffff" opacity="1.00" d=" M 55.59 200.59 C 79.44 178.32 116.97 172.25 146.26 186.98 C 118.62 214.77 90.60 242.21 63.20 270.24 C 52.64 279.90 51.72 297.96 61.56 308.45 C 73.17 320.47 85.17 332.13 96.95 343.99 C 106.35 356.88 126.48 361.04 138.64 349.66 C 167.48 321.65 195.17 292.47 223.94 264.39 C 234.96 287.52 234.61 315.77 222.44 338.38 C 214.21 354.42 199.64 365.61 187.53 378.53 C 173.37 393.78 155.36 408.00 133.82 409.38 L 151.79 410.98 C 143.99 410.03 136.14 410.01 128.38 411.00 L 113.91 411.00 C 105.92 410.18 97.82 409.89 89.83 410.98 L 107.69 409.37 C 80.55 407.81 61.43 386.33 43.70 368.21 C 23.09 349.13 1.45 327.10 0.01 297.21 L 0.00 299.37 L 0.00 283.53 C 1.64 247.21 32.08 224.14 55.59 200.59 Z" />
</g>
</svg>
