<?xml version="1.0" encoding="UTF-8" ?>
<!DOCTYPE svg PUBLIC "-//W3C//DTD SVG 1.1//EN" "http://www.w3.org/Graphics/SVG/1.1/DTD/svg11.dtd">
<svg width="411pt" height="411pt" viewBox="0 0 411 411" version="1.1" xmlns="http://www.w3.org/2000/svg">
<g id="#26272bff">
</g>
<g id="#95989aff">
<path fill="#95989a" opacity="1.00" d=" M 185.94 0.00 L 198.24 0.00 C 228.75 6.15 259.38 11.80 289.95 17.76 C 317.21 22.98 345.20 42.67 349.46 71.71 C 349.94 109.15 349.48 146.61 349.69 184.06 C 350.17 195.16 340.27 205.70 329.01 205.08 C 318.11 205.61 308.43 195.67 308.53 184.89 C 308.53 152.33 308.48 119.77 308.56 87.21 C 259.10 120.97 211.65 157.91 168.38 199.36 C 148.55 219.03 128.55 239.29 114.81 263.84 C 97.06 298.94 97.78 347.54 129.38 374.64 C 143.08 384.82 136.62 408.32 120.03 411.00 L 113.23 411.00 C 107.01 409.80 101.85 405.92 97.55 401.45 C 54.40 359.84 52.55 289.54 81.32 239.41 C 95.89 214.82 115.47 193.70 135.63 173.63 C 179.86 130.75 228.47 92.60 279.05 57.52 C 247.66 51.62 216.15 46.00 184.95 39.30 C 166.47 33.77 167.45 4.87 185.94 0.00 Z" />
</g>
</svg>
