<?xml version="1.0" encoding="UTF-8" ?>
<!DOCTYPE svg PUBLIC "-//W3C//DTD SVG 1.1//EN" "http://www.w3.org/Graphics/SVG/1.1/DTD/svg11.dtd">
<svg width="411pt" height="411pt" viewBox="0 0 411 411" version="1.1" xmlns="http://www.w3.org/2000/svg">
<g id="#26272bff">
</g>
<g id="#95989aff">
<path fill="#95989a" opacity="1.00" d=" M 190.88 0.00 L 200.61 0.00 C 228.94 7.19 257.79 12.41 285.93 20.31 C 307.21 26.54 324.26 45.52 325.76 67.97 C 325.79 98.02 325.78 128.07 325.78 158.11 C 325.66 168.82 315.81 178.53 304.99 177.84 C 294.30 178.24 284.63 168.52 284.73 157.88 C 284.69 133.36 284.65 108.84 284.76 84.31 C 239.99 115.12 197.06 149.12 159.38 188.39 C 146.42 202.86 132.35 217.71 126.63 236.75 C 118.78 259.57 119.15 289.21 139.21 305.74 C 150.85 313.81 149.54 333.44 136.99 339.96 C 125.19 347.14 112.03 338.92 104.53 329.47 C 66.75 287.92 77.42 220.92 111.64 180.54 C 152.23 131.16 203.38 91.76 255.02 54.65 C 232.76 49.79 210.49 44.83 188.36 39.49 C 169.51 33.65 171.45 3.50 190.88 0.00 Z" />
<path fill="#95989a" opacity="1.00" d=" M 0.00 270.16 C 3.01 249.21 36.08 248.26 40.23 269.00 C 41.63 302.66 40.11 336.51 40.79 370.24 C 150.62 370.29 260.45 370.28 370.27 370.25 C 370.91 336.54 369.47 302.71 370.88 269.07 C 374.93 248.81 406.77 248.92 411.00 269.08 L 411.00 389.24 C 408.69 400.01 399.69 408.71 388.96 411.00 L 22.45 411.00 C 11.42 408.93 2.40 399.87 0.00 388.96 L 0.00 270.16 Z" />
</g>
</svg>
