<?xml version="1.0" encoding="utf-8"?>
<!-- Generator: Adobe Illustrator 19.0.0, SVG Export Plug-In . SVG Version: 6.00 Build 0)  -->
<svg version="1.1" id="Capa_1" xmlns="http://www.w3.org/2000/svg" xmlns:xlink="http://www.w3.org/1999/xlink" x="0px" y="0px"
	 viewBox="-50 51 411 411" style="enable-background:new -50 51 411 411;" xml:space="preserve">
<path d="M150.2,51h10.5c8.9,1.6,16.6,8,20.1,16.3c15.8,35.5,31.5,71.1,47.4,106.5c35.2,0,70.4,0,105.7,0c13,0.1,24.7,10.1,27.1,22.8
	v9.5c-1.3,6.3-4.5,12.2-9.5,16.4c-27.6,23.5-55,47.2-82.6,70.7c11.5,42.1,23,84.3,34.5,126.5c1.8,6.3,3.9,12.8,2.7,19.4
	c-1.8,12.1-12.5,21.9-24.7,23h-4.2c-5.7-0.6-11.3-2.7-15.8-6.3c-35.2-27.5-70.6-54.8-105.8-82.3C120,401,84.5,428.6,49,456.2
	c-4.2,3.3-9.4,5-14.6,5.8h-4.2C13.8,461.3,1,444.1,5.3,428.3c12.2-45,24.5-90,36.8-135C16.7,271.5-8.6,249.7-34,228
	c-7.3-5.6-14.4-12.3-16-21.8v-9.4c2.2-12.9,14-23,27.1-23.1c35.2,0,70.5,0,105.7,0c16-35.7,31.8-71.5,47.7-107.2
	C134.1,58.7,141.6,52.6,150.2,51"/>
</svg>
