<svg width="411pt" height="411pt" viewBox="0 0 411 411" version="1.1" xmlns="http://www.w3.org/2000/svg"><path d=" M 20.98 41.81 C 35.00 38.32 50.69 48.14 53.61 62.32 C 56.91 75.62 48.61 90.65 35.30 94.40 C 20.46 99.81 3.10 89.44 0.00 74.11 L 0.00 62.92 C 2.23 52.57 10.66 44.12 20.98 41.81 Z" /><path d=" M 111.28 58.25 C 115.43 47.63 126.73 40.73 138.00 41.06 C 219.67 41.08 301.34 41.05 383.00 41.07 C 396.27 40.74 408.52 50.76 411.00 63.78 L 411.00 72.86 C 408.73 85.28 397.82 95.32 385.08 95.78 C 305.39 95.83 225.69 95.78 146.00 95.80 C 139.15 95.91 131.97 96.42 125.60 93.35 C 112.41 88.06 105.62 71.26 111.28 58.25 Z" /><path d=" M 19.94 179.02 C 33.12 175.04 48.27 183.37 52.67 196.26 C 57.12 207.86 52.22 222.12 41.57 228.53 C 26.36 239.01 3.35 229.12 0.00 211.07 L 0.00 199.92 C 2.27 190.02 10.09 181.64 19.94 179.02 Z" /><path d=" M 132.26 178.42 C 170.13 177.45 208.09 178.27 246.00 178.01 C 262.02 177.52 276.35 193.12 273.67 209.10 C 272.09 222.56 259.53 233.13 246.06 232.91 C 209.69 232.97 173.31 232.98 136.95 232.90 C 122.51 233.12 109.18 220.59 109.34 206.01 C 108.72 192.76 119.37 180.60 132.26 178.42 Z" /><path d=" M 0.01 336.11 C 4.06 319.01 25.12 309.63 40.35 318.62 C 56.97 327.12 59.08 352.89 43.87 363.83 C 29.04 376.64 3.66 367.27 0.00 348.20 L 0.00 335.05 L 0.01 336.11 Z" /><path d=" M 133.32 315.42 C 198.20 314.87 263.12 315.42 328.02 315.15 C 339.61 314.66 350.83 322.23 354.62 333.21 C 361.74 350.55 346.45 370.83 328.00 369.90 C 264.33 369.94 200.65 370.00 136.98 369.87 C 122.89 370.04 109.88 358.23 109.36 344.05 C 108.23 330.18 119.40 316.64 133.32 315.42 Z" /></svg>