<svg width="411pt" height="411pt" viewBox="0 0 411 411" version="1.1" xmlns="http://www.w3.org/2000/svg">
<g id="#26272bff">
</g>
<g id="#ffffffff">
<path fill="#ffffff" opacity="1.00" d=" M 21.68 0.00 L 86.52 0.00 C 89.04 0.82 91.62 1.53 93.98 2.75 C 102.05 6.75 107.77 15.02 108.85 23.94 C 109.56 29.15 108.53 34.53 106.23 39.23 C 102.46 47.17 94.53 52.83 85.91 54.29 C 81.63 54.79 77.30 54.50 73.00 54.52 C 60.33 54.53 47.67 54.52 35.00 54.52 C 30.83 54.51 26.64 54.77 22.48 54.29 C 12.18 52.57 2.61 44.63 0.53 34.17 L 0.00 34.73 L 0.00 21.08 C 1.86 13.98 6.30 7.47 12.67 3.70 C 15.46 1.98 18.62 1.07 21.68 0.00 Z" />
<path fill="#ffffff" opacity="1.00" d=" M 185.90 0.00 L 360.92 0.00 C 363.68 0.85 366.50 1.63 369.05 3.03 C 378.62 8.06 384.64 19.16 383.40 29.94 C 382.40 42.52 371.58 53.28 359.06 54.43 C 355.05 54.73 351.02 54.49 347.01 54.52 C 294.98 54.54 242.96 54.49 190.94 54.55 C 177.25 54.60 164.70 42.83 164.22 29.07 C 163.19 17.64 170.39 6.08 181.05 1.88 C 182.68 1.28 184.34 0.77 185.90 0.00 Z" />
<path fill="#ffffff" opacity="1.00" d=" M 0.00 130.92 C 2.75 118.71 14.46 109.41 26.96 109.48 C 72.31 109.41 117.66 109.45 163.01 109.46 C 173.66 109.20 184.20 115.57 188.72 125.25 C 193.69 135.17 191.53 147.97 183.81 155.88 C 179.33 160.39 173.35 163.64 166.95 164.17 C 162.98 164.64 158.98 164.38 155.00 164.39 C 114.67 164.40 74.33 164.37 34.00 164.40 C 27.25 164.57 20.06 164.67 14.04 161.16 C 7.00 157.61 2.02 150.84 0.00 143.29 L 0.00 130.92 Z" />
<path fill="#ffffff" opacity="1.00" d=" M 271.47 109.63 C 289.97 109.20 308.49 109.57 327.00 109.44 C 333.61 109.29 340.37 111.24 345.49 115.50 C 354.04 121.89 358.18 133.71 355.13 143.98 C 353.31 151.44 347.98 157.85 341.17 161.30 C 335.37 164.61 328.47 164.57 322.00 164.40 C 308.00 164.39 294.00 164.37 280.00 164.40 C 275.97 164.55 271.91 164.46 267.94 163.75 C 258.35 161.56 249.87 154.01 247.50 144.33 C 244.35 133.91 248.27 121.51 257.33 115.29 C 261.34 112.05 266.37 110.12 271.47 109.63 Z" />
<path fill="#ffffff" opacity="1.00" d=" M 24.66 219.45 C 28.42 219.01 32.22 219.33 36.00 219.28 C 50.66 219.24 65.32 219.35 79.98 219.22 C 85.71 219.24 91.51 220.55 96.34 223.72 C 107.82 230.50 112.37 246.51 106.44 258.41 C 102.83 266.51 94.90 272.27 86.26 273.87 C 81.52 274.38 76.75 274.06 72.00 274.09 C 57.04 274.12 42.07 274.05 27.10 274.15 C 19.19 274.46 11.44 270.73 6.17 264.93 C 3.20 261.62 1.37 257.50 0.00 253.32 L 0.00 240.57 C 0.80 238.25 1.52 235.88 2.71 233.72 C 6.88 225.56 15.62 220.22 24.66 219.45 Z" />
<path fill="#ffffff" opacity="1.00" d=" M 167.80 233.03 C 172.49 224.42 182.29 219.39 191.93 219.25 C 252.96 219.31 313.98 219.25 375.01 219.28 C 380.46 219.24 386.03 218.89 391.32 220.51 C 397.86 222.55 403.91 226.83 407.22 232.94 C 409.10 235.97 409.85 239.49 411.00 242.83 L 411.00 250.21 C 410.11 253.45 409.48 256.82 407.73 259.75 C 403.88 267.17 396.33 272.35 388.18 273.89 C 383.80 274.34 379.39 274.09 375.00 274.10 C 316.67 274.10 258.33 274.10 200.00 274.10 C 195.59 274.10 191.15 274.34 186.75 273.86 C 178.87 272.33 171.57 267.40 167.65 260.34 C 162.82 252.08 163.01 241.26 167.80 233.03 Z" />
<path fill="#ffffff" opacity="1.00" d=" M 9.94 335.08 C 15.30 330.80 22.21 328.89 29.00 329.01 C 82.66 329.00 136.33 328.98 190.00 329.02 C 199.51 328.91 209.14 333.53 214.43 341.54 C 218.28 347.87 220.12 355.76 218.02 363.00 C 215.91 372.85 207.68 380.79 198.01 383.21 C 192.73 384.25 187.33 384.06 181.99 383.96 C 133.33 383.97 84.67 383.96 36.00 383.97 C 30.93 384.09 25.81 384.20 20.79 383.34 C 10.74 381.16 2.61 372.95 0.00 363.07 L 0.00 350.45 C 1.64 344.48 4.73 338.66 9.94 335.08 Z" />
</g>
</svg>
