<svg width="411pt" height="411pt" viewBox="0 0 411 411" version="1.1" xmlns="http://www.w3.org/2000/svg">
<g id="#26272bff">
</g>
<g id="#ffffffff">
<path fill="#ffffff" opacity="1.00" d=" M 116.07 62.13 C 161.60 20.05 241.73 22.57 281.80 71.17 C 305.25 97.61 318.65 131.42 326.59 165.48 C 373.44 170.97 409.68 213.40 410.98 260.03 L 411.00 257.73 L 411.00 287.50 C 409.13 308.38 402.02 329.25 388.26 345.33 C 369.27 367.46 339.70 378.36 311.00 378.69 C 245.66 378.62 180.31 378.80 114.96 378.60 C 79.80 375.80 44.44 359.69 22.89 331.10 C 8.85 312.73 1.98 289.88 0.00 267.07 L 0.00 243.24 C 0.69 195.59 28.98 145.68 77.55 133.68 C 83.44 106.95 95.78 80.93 116.07 62.13 M 128.53 97.55 C 114.54 116.45 107.91 140.03 107.23 163.36 C 77.19 161.62 48.41 181.87 39.45 210.48 C 30.24 239.89 28.92 273.83 43.17 301.89 C 56.91 327.78 85.73 342.01 113.89 345.56 C 180.26 345.61 246.64 345.58 313.01 345.57 C 339.39 345.30 366.85 329.87 374.45 303.40 C 381.86 276.02 380.50 243.50 362.70 220.26 C 347.44 201.35 321.65 195.48 298.40 197.59 C 292.44 151.41 276.14 99.26 233.59 74.33 C 199.20 56.99 151.46 65.44 128.53 97.55 Z" />
<path fill="#ffffff" opacity="1.00" d=" M 142.68 220.86 C 165.96 196.64 190.23 173.26 213.78 149.25 C 237.45 172.95 261.44 196.40 284.73 220.44 C 295.45 233.39 278.61 253.39 264.04 244.95 C 251.82 235.19 241.58 223.03 230.23 212.23 C 230.09 241.48 230.93 270.83 229.81 300.02 C 226.97 316.82 199.78 316.20 197.80 299.23 C 196.88 270.31 197.54 241.23 197.48 212.25 C 186.47 222.98 176.19 234.61 164.45 244.50 C 150.28 253.92 132.23 234.26 142.68 220.86 Z" />
</g>
</svg>
