<svg width="411pt" height="411pt" viewBox="0 0 411 411" version="1.1" xmlns="http://www.w3.org/2000/svg">
<g id="#26272bff">
</g>
<g id="#ffffffff">
<path fill="#ffffff" opacity="1.00" d=" M 0.00 103.28 C 4.87 81.75 25.78 64.83 47.99 65.40 C 120.00 65.38 192.00 65.35 264.01 65.42 C 287.83 65.20 309.88 85.18 312.06 108.89 C 312.80 119.62 314.39 130.27 315.03 141.01 C 317.89 153.21 335.06 146.74 342.98 143.10 C 366.00 121.00 388.34 98.11 411.00 75.61 L 411.00 335.36 C 388.30 312.95 366.11 289.96 342.99 268.00 C 335.18 264.71 322.21 259.26 315.86 266.98 C 313.75 279.09 313.23 291.63 311.85 303.91 C 308.82 326.15 288.55 344.94 265.99 345.62 C 192.33 345.61 118.66 345.61 44.99 345.62 C 23.93 344.93 5.33 328.56 0.00 308.49 L 0.00 103.28 M 31.65 115.01 C 31.64 175.34 31.64 235.67 31.65 296.00 C 31.34 305.11 39.88 313.34 49.00 312.63 C 121.19 312.50 193.40 312.93 265.57 312.41 C 283.22 309.30 279.17 288.02 281.53 274.97 C 280.78 256.86 291.13 237.54 309.38 232.51 C 334.73 225.48 362.40 236.07 378.62 256.29 C 378.62 222.45 378.53 188.61 378.66 154.77 C 360.26 177.76 324.09 189.92 298.01 173.04 C 279.32 160.09 282.11 135.45 279.50 115.66 C 279.92 106.68 272.22 97.88 263.02 98.37 C 191.34 98.36 119.66 98.35 47.98 98.38 C 39.18 97.98 31.42 106.37 31.65 115.01 Z" />
</g>
</svg>
