<svg width="411pt" height="411pt" viewBox="0 0 411 411" version="1.1" xmlns="http://www.w3.org/2000/svg">
<g id="#26272bff">
</g>
<g id="#ffffffff">
<path fill="#ffffff" opacity="1.00" d=" M 192.92 0.00 L 215.96 0.00 C 254.92 2.10 293.29 15.31 325.02 38.07 C 374.65 73.02 406.41 130.82 411.00 191.17 L 411.00 216.16 C 408.91 254.35 396.20 291.93 374.24 323.28 C 340.05 373.09 282.97 405.54 222.90 410.82 L 223.66 411.00 L 194.20 411.00 C 166.95 409.20 139.96 402.54 115.37 390.57 C 50.46 359.72 5.12 292.59 0.22 220.93 L 0.00 221.72 L 0.00 193.42 C 3.55 131.44 36.62 72.01 87.78 36.76 C 118.54 15.03 155.51 2.90 192.92 0.00 M 184.83 33.89 C 179.99 34.50 175.21 35.38 170.41 36.24 C 165.86 55.70 162.38 75.40 159.07 95.10 C 157.92 101.35 157.16 107.67 155.96 113.92 C 186.04 110.57 216.39 110.05 246.56 112.48 C 246.39 111.65 246.05 110.00 245.87 109.18 C 242.63 87.29 238.55 65.53 234.07 43.87 C 233.93 37.33 231.29 33.00 224.22 33.85 C 211.10 32.78 197.93 32.33 184.83 33.89 M 267.73 44.29 C 268.54 47.93 269.39 51.56 269.96 55.25 C 270.33 56.90 270.61 58.57 270.87 60.24 C 272.94 71.56 275.18 82.85 276.88 94.24 C 278.12 101.53 279.04 108.89 280.41 116.17 C 306.02 118.94 331.46 123.32 356.77 128.13 C 357.91 128.31 359.05 128.48 360.19 128.65 C 341.35 90.32 307.68 59.48 267.73 44.29 M 49.65 130.59 C 73.70 125.62 97.96 121.73 122.23 118.01 C 123.67 105.62 126.09 93.37 128.05 81.07 C 129.78 70.01 132.13 59.06 134.18 48.07 C 97.43 64.47 67.21 94.45 49.65 130.59 M 166.87 145.92 C 163.32 146.68 159.64 146.27 156.10 147.09 C 154.61 147.21 153.13 147.29 151.65 147.38 C 146.71 185.97 146.69 225.11 151.66 263.70 C 156.02 264.44 160.46 264.39 164.82 265.11 C 193.48 267.81 222.39 268.04 251.06 265.25 C 251.42 262.12 251.63 258.99 251.92 255.86 C 255.20 226.29 255.71 196.42 253.10 166.76 C 252.32 162.93 252.70 158.98 251.90 155.16 C 250.84 152.07 253.26 144.94 247.97 145.65 C 220.98 143.53 193.84 143.31 166.87 145.92 M 284.40 261.55 C 290.32 260.78 296.22 259.81 302.16 259.08 C 325.94 255.57 349.51 250.72 373.12 246.23 C 375.37 239.67 376.13 232.74 376.90 225.88 C 378.53 212.41 378.78 198.63 376.89 185.15 C 376.62 182.46 376.46 179.75 376.00 177.08 C 377.52 158.59 355.02 163.50 342.89 159.06 C 331.21 157.09 319.59 154.71 307.85 153.07 C 300.04 151.94 292.25 150.68 284.41 149.74 C 288.85 186.86 288.79 224.43 284.40 261.55 M 111.18 153.09 C 99.44 154.69 87.83 157.13 76.14 159.07 C 63.03 161.36 50.02 164.27 36.98 166.93 C 35.46 172.83 34.70 178.88 33.93 184.91 C 31.72 204.61 32.58 224.77 37.13 244.09 C 39.82 244.76 42.53 245.36 45.26 245.87 C 66.77 250.39 88.37 254.56 110.10 257.95 C 112.71 258.46 115.39 258.63 117.98 259.30 C 116.09 242.64 115.42 225.88 114.90 209.16 C 115.20 197.83 115.15 186.43 116.07 175.13 C 116.44 167.45 117.04 159.78 118.05 152.16 C 115.74 152.35 113.44 152.55 111.18 153.09 M 49.54 280.39 C 66.99 316.59 97.29 346.44 133.94 363.00 C 129.89 339.71 125.29 316.49 122.22 293.04 C 115.81 291.89 109.36 290.98 102.91 290.06 C 100.69 289.60 98.44 289.35 96.22 288.93 C 84.83 287.17 73.52 284.94 62.18 282.90 C 57.93 282.28 53.73 281.33 49.54 280.39 M 356.87 282.90 C 343.34 285.45 329.78 287.91 316.18 290.10 C 304.15 291.92 292.02 293.48 280.06 295.50 C 279.24 302.61 277.99 309.68 276.88 316.76 C 275.28 328.17 272.94 339.47 270.87 350.80 C 270.05 356.14 268.97 361.43 267.75 366.70 C 307.84 351.72 341.41 320.65 360.37 282.37 C 359.20 282.54 358.03 282.71 356.87 282.90 M 155.98 297.09 C 160.25 323.02 164.22 349.13 170.53 374.63 C 175.28 375.66 180.07 376.45 184.89 377.08 C 198.55 379.19 212.35 378.24 226.05 377.10 C 228.05 376.67 230.09 376.46 232.13 376.28 C 232.83 373.26 233.44 370.22 234.09 367.20 C 238.58 345.52 242.65 323.75 245.90 301.86 C 246.06 301.04 246.38 299.41 246.54 298.59 C 216.39 301.55 186.05 300.31 155.98 297.09 Z" />
</g>
</svg>
