<svg xmlns="http://www.w3.org/2000/svg" viewBox="-547 263 15.008 15"><defs><style>.a,.d{fill:none;}.b{fill:rgba(0,0,0,0);}.b,.d{stroke:#fff;stroke-width:1.5px;}.c{fill:#fff;}</style></defs><g transform="translate(-365 -694)"><rect class="a" width="15" height="15" transform="translate(-182 957)"/><path class="b" d="M2.5-2.7A8.986,8.986,0,0,1,8-4.7a7.9,7.9,0,0,1,5.25,2" transform="translate(-168 966.55) rotate(180)"/><circle class="c" cx="0.75" cy="0.75" r="0.75" transform="translate(-182 968.5)"/><circle class="c" cx="0.75" cy="0.75" r="0.75" transform="translate(-171.25 968.5)"/><path class="d" d="M-185.5,958s0,7-5.25,7-5.25-7-5.25-7Z" transform="translate(14.75 3.5)"/><path class="c" d="M-.85-1.174H2l.75.75a3.3,3.3,0,0,1-1.4,2.8,3.332,3.332,0,0,1-2.9.9Z" transform="translate(-169.75 961.924)"/><g transform="translate(-70 938.5) rotate(90)"><path class="b" d="M2,0H.25" transform="translate(19 107.5)"/><circle class="c" cx="0.75" cy="0.75" r="0.75" transform="translate(18.5 106.75)"/><circle class="c" cx="0.75" cy="0.75" r="0.75" transform="translate(20.25 106.75)"/></g><g transform="translate(-66.75 938.5) rotate(90)"><circle class="c" cx="0.75" cy="0.75" r="0.75" transform="translate(19.5 107)"/><circle class="c" cx="0.75" cy="0.75" r="0.75" transform="translate(20.25 107)"/><path class="b" d="M2,0H1.25" transform="translate(19 107.75)"/></g><circle class="c" cx="0.75" cy="0.75" r="0.75" transform="translate(-168.5 960.75)"/></g></svg>