<svg version="1.1"
	 id="svg2" xmlns:svg="http://www.w3.org/2000/svg" xmlns:rdf="http://www.w3.org/1999/02/22-rdf-syntax-ns#" xmlns:cc="http://creativecommons.org/ns#" xmlns:dc="http://purl.org/dc/elements/1.1/"
	 xmlns="http://www.w3.org/2000/svg" xmlns:xlink="http://www.w3.org/1999/xlink" x="0px" y="0px" viewBox="5 47 480 450"
	 style="enable-background:new 5 47 480 450;" xml:space="preserve">
<style type="text/css">
	.st0{fill:#FCFCFA;}
	.st1{fill:#1B1B1B;fill-opacity:0.6;}
	.st2{fill:#1B1B1B;fill-opacity:0.13;}
	.st3{fill:#1B1B1B;fill-opacity:7.000000e-002;}
	.st4{fill:#1B1B1B;fill-opacity:0.36;stroke:#1B1B1B;stroke-width:3.000000e-002;stroke-opacity:0.36;}
	.st5{fill:#1B1B1B;fill-opacity:0.21;stroke:#1B1B1B;stroke-width:3.000000e-002;stroke-opacity:0.21;}
	.st6{fill:#1B1B1B;fill-opacity:0.13;stroke:#1B1B1B;stroke-width:3.000000e-002;stroke-opacity:0.13;}
	.st7{fill:#1B1B1B;fill-opacity:7.000000e-002;stroke:#1B1B1B;stroke-width:3.000000e-002;stroke-opacity:7.000000e-002;}
	.st8{fill:#1B1B1B;fill-opacity:0;}
	.st9{fill:#1B1B1B;fill-opacity:2.000000e-002;}
	.st10{fill:#1B1B1B;fill-opacity:0.36;}
	.st11{fill:#1B1B1B;fill-opacity:0.21;}
</style>
<g id="Root" transform="matrix(1.000, 0.000, 0.000, 1.000, 0.000, -0.000)">
	<g id="Layer_1" transform="matrix(1.000, 0.000, 0.000, 1.000, 0.000, -0.000)">
	</g>
	<g id="Layer_4" transform="matrix(1.000, 0.000, 0.000, 1.000, 0.000, -0.000)">
		<path class="st0" d="M395,67H275v10h-50v20h20v10h10v20h-10v20h-20v-20h20v-10h-20v-10h-10V97h-10V87h-20v10h-20v10h-20v10h-10v10
			h-20v10h-10v10H95v10H85v10H75v10H65v10H55v10H45v50H35v40H25v20H15v30h10v160h340v-10h-10v-30h-10V297h10V187h-10v-10H185v10h-10
			v10h-20v10h-10v10h-20v-10h10v-10h10v-10h10v-10h20v-10h10v-10h170v10h90v-10h10v-50h-10V97h-10v10h-10v10h-20v10h-10v-20h10V97
			h20V87h-10V77h-20V67z M415,147v-20h20v20H415z"/>
	</g>
	<g id="Layer_4_1_" transform="matrix(1.000, 0.000, 0.000, 1.000, 0.000, -0.000)">
		<path class="st1" d="M205,177h-20v10h20V177z"/>
		<path class="st2" d="M265,177h-60v10h60V177z"/>
		<path class="st3" d="M305,177h-40v10h40V177z"/>
		<path class="st2" d="M335,177h-30v10h20v10h10v10h20v-10h-10v-10h-10V177z"/>
		<polygon class="st4" points="345,177 335,177 335,187 345,187 		"/>
		<polygon class="st5" points="185,187 175,187 175,197 185,197 		"/>
		<polygon class="st6" points="195,187 185,187 185,197 195,197 		"/>
		<polygon class="st7" points="205,187 195,187 195,197 205,197 		"/>
		<path class="st8" d="M325,187H205v10h-30v10h-20v10h60v-10h60v20h50v20h10v30h10v10h10v-70h-10v-10h-10v-10h-10V187z"/>
		<polygon class="st4" points="355,187 345,187 345,197 355,197 		"/>
		<path class="st3" d="M175,197h-20v10h20V197z"/>
		<polygon class="st6" points="155,207 145,207 145,217 155,217 		"/>
		<polygon class="st7" points="355,207 345,207 345,217 355,217 		"/>
		<path class="st2" d="M45,247H35v20h10V247z"/>
		<path class="st3" d="M45,267H35v30H25v60h10v20h10V267z"/>
		<polygon class="st4" points="35,287 25,287 25,297 35,297 		"/>
		<polygon class="st7" points="355,287 345,287 345,297 355,297 		"/>
		<path class="st1" d="M25,307H15v20h10V307z"/>
		<path class="st8" d="M55,307H45v20h10V307z"/>
		<polygon class="st4" points="25,327 15,327 15,337 25,337 		"/>
		<path class="st2" d="M35,357H25v20h10V357z"/>
		<path class="st9" d="M55,367H45v20h10v20h10v30h10v10h10v-10h10v-10H85v-10H75v-30H65v-10H55V367z"/>
		<polygon class="st5" points="35,377 25,377 25,387 35,387 		"/>
		<path class="st2" d="M45,377H35v20h10V377z"/>
		<path class="st10" d="M35,387H25v70h10v20h10v20h30v-10H65v-10H55v-20H45v-40H35V387z"/>
		<polygon class="st7" points="55,387 45,387 45,397 55,397 		"/>
		<path class="st11" d="M45,397H35v20h10V397z"/>
		<path class="st2" d="M55,397H45v30h10V397z"/>
		<path class="st3" d="M65,407H55v20h10V407z"/>
		<path class="st11" d="M55,427H45v30h10v20h10v10h10v10h40v-10h-10v-10H95v-10H75v-10H65v-10H55V427z"/>
		<path class="st2" d="M65,427H55v20h10v10h10v-20H65V427z"/>
		<path class="st3" d="M105,437H85v10H75v10h10v10h10v10h10v10h10v10h20v-30h-10v-10h-10v-10h-10V437z"/>
		<path class="st1" d="M35,457H25v40h20v-20H35V457z"/>
		<polygon class="st6" points="85,457 75,457 75,467 85,467 		"/>
		<path class="st2" d="M145,477h-10v20h10V477z"/>
		<polygon class="st7" points="155,487 145,487 145,497 155,497 		"/>
	</g>
	<g id="Layer_3" transform="matrix(1.000, 0.000, 0.000, 1.000, 0.000, -0.000)">
		<path d="M405,47H225v10h-30v10h-30v10h-20v10h-20v10h-10v10h-10v10H95v10H85v10H65v20H55v10H45v10H35v10H25v40H15v60H5v210h30v-10
			H25V297h10v-50h10v-50h10v-10h10v-10h10v-10h10v-10h10v-10h10v-10h10v-10h20v-10h10v-10h20V97h20V87h20v10h10v10h10v10h10v10h-10
			v20h20v-20h10v-20h-10V97h-20V77h50V67h120v10h20v10h10v10h-20v10h-10v20h20v-10h10v-10h10V97h10v10h10v50h-10v10h-90v-10H185v10
			h-10v10h-20v10h-10v10h-10v10h-10v20h20v-10h10v-10h10v-10h10v-10h40v-10h130v10h10v110h-10v160h10v30h10v10h40v-10h-10v-10h-10
			v-20h-10v-30h-10V307h10V187h70v-10h20v-10h10v-20h10v-30h-10v-10h-10V97h-10V77h-20V67h-10V57h-20V47z"/>
		<path d="M435,127h-20v20h20V127z"/>
	</g>
	<g id="Layer_5" transform="matrix(1.000, 0.000, 0.000, 1.000, 0.000, -0.000)">
	</g>
</g>
</svg>
