<svg xmlns="http://www.w3.org/2000/svg" version="1.0" width="411" height="411" preserveAspectRatio="xMidYMid meet"><rect id="backgroundrect" width="100%" height="100%" x="0" y="0" fill="none" stroke="none"/>
<metadata>
Created by potrace 1.14, written by Peter Selinger 2001-2017
</metadata>

<g class="currentLayer"><title>Layer 1</title><path fill="#ffcc4d" fill-opacity="1" stroke="none" stroke-opacity="1" stroke-width="1" stroke-dasharray="none" stroke-linejoin="miter" stroke-linecap="butt" stroke-dashoffset="" fill-rule="nonzero" opacity="1" marker-start="" marker-mid="" marker-end="" d="M9,206.84745758771896 C9,104.63751283633775 97.3839779005525,21.847457587718964 206.5,21.847457587718964 C315.6160220994475,21.847457587718964 404,104.63751283633775 404,206.84745758771896 C404,309.0574023391002 315.6160220994475,391.84745758771896 206.5,391.84745758771896 C97.3839779005525,391.84745758771896 9,309.0574023391002 9,206.84745758771896 z" id="svg_1" class=""/>
<path d="M183.50000273436308,1.1999938935041428 c-26.80000039935112,2.7000000402331352 -58.400000870227814,13.200000196695328 -82.40000122785568,27.60000041127205 c-56.90000084787607,33.900000505149364 -93.40000139176846,91.2000013589859 -100.10000149160624,157.10000234097242 c-4.200000062584877,42.50000063329935 6.000000089406967,88.00000131130219 28.200000420212746,125.00000186264515 c23.800000354647636,39.7000005915761 61.50000091642141,71.00000105798244 105.30000156909227,87.30000130087137 c10.800000160932541,4.000000059604645 31.900000475347042,9.300000138580799 43.50000064820051,10.900000162422657 c12.300000183284283,1.700000025331974 42.8000006377697,1.700000025331974 55.000000819563866,0 c43.10000064224005,-6.100000090897083 83.1000012382865,-25.400000378489494 114.70000170916319,-55.500000827014446 c44.90000066906214,-42.70000063627958 68.50000102072954,-106.40000158548355 62.200000926852226,-167.70000249892473 c-4.90000007301569,-48.4000007212162 -24.900000371038914,-90.80000135302544 -58.900000877678394,-125.00000186264515 c-44.00000065565109,-44.30000066012144 -105.00000156462193,-66.00000098347664 -167.5000024959445,-59.70000088959932 zm50.00000074505806,28.500000424683094 c27.10000040382147,3.7000000551342964 54.70000081509352,15.500000230967999 78.40000116825104,33.30000049620867 c27.200000405311584,20.500000305473804 46.000000685453415,44.60000066459179 58.50000087171793,75.1000011190772 c14.800000220537186,36.10000053793192 17.100000254809856,79.50000118464231 6.100000090897083,117.40000174939632 c-19.30000028759241,66.4000009894371 -77.40000115334988,116.6000017374754 -146.50000218302011,126.50000188499689 c-11.900000177323818,1.700000025331974 -39.300000585615635,1.5000000223517418 -51.5000007674098,-0.4000000059604645 c-77.10000114887953,-12.10000018030405 -136.90000203996897,-71.90000107139349 -149.10000222176313,-149.10000222176313 c-2.500000037252903,-15.300000227987766 -2.2000000327825546,-40.90000060945749 0.5000000074505806,-56.800000846385956 c9.80000014603138,-56.90000084787607 46.10000068694353,-105.40000157058239 98.0000014603138,-131.30000195652246 c13.000000193715096,-6.400000095367432 28.200000420212746,-11.800000175833702 39.90000059455633,-14.000000208616257 c18.0000002682209,-3.400000050663948 44.30000066012144,-3.7000000551342964 65.70000097900629,-0.7000000104308128 z" id="svg_2" class="" fill="#ffcc4d" fill-opacity="1" stroke="none"/>
<path d="M221.5000033006072,89.59999521076679 c-22.100000329315662,4.800000071525574 -39.00000058114529,19.60000029206276 -54.500000812113285,47.300000704824924 c-6.600000098347664,11.900000177323818 -8.900000132620335,14.600000217556953 -11.700000174343586,13.700000204145908 c-1.0000000149011612,-0.30000000447034836 -4.800000071525574,-4.90000007301569 -8.300000123679638,-10.200000151991844 c-11.400000169873238,-16.900000251829624 -20.500000305473804,-23.300000347197056 -34.20000050961971,-24.2000003606081 c-10.000000149011612,-0.6000000089406967 -16.900000251829624,1.600000023841858 -26.200000390410423,8.200000122189522 c-11.900000177323818,8.600000128149986 -25.600000381469727,26.50000039488077 -30.200000450015068,39.40000058710575 c-3.200000047683716,8.900000132620335 -1.2000000178813934,8.400000125169754 15.100000225007534,-3.7000000551342964 c6.100000090897083,-4.500000067055225 15.20000022649765,-10.30000015348196 20.40000030398369,-12.90000019222498 c8.400000125169754,-4.200000062584877 10.200000151991844,-4.700000070035458 17.30000025779009,-5.100000075995922 c7.300000108778477,-0.30000000447034836 8.400000125169754,-0.10000000149011612 14.600000217556953,3.0000000447034836 c4.700000070035458,2.3000000342726707 9.100000135600567,5.700000084936619 15.20000022649765,11.800000175833702 c11.500000171363354,11.500000171363354 13.600000202655792,13.100000195205212 18.100000269711018,13.100000195205212 c4.90000007301569,0 7.900000117719173,-2.600000038743019 17.700000263750553,-15.300000227987766 c12.000000178813934,-15.600000232458115 21.800000324845314,-23.900000356137753 35.60000053048134,-30.200000450015068 c18.700000278651714,-8.700000129640102 43.80000065267086,-11.300000168383121 61.80000092089176,-6.400000095367432 c5.4000000804662704,1.4000000208616257 15.000000223517418,6.200000092387199 20.90000031143427,10.400000154972076 c2.600000038743019,1.8000000268220901 6.000000089406967,4.000000059604645 7.700000114738941,4.90000007301569 c2.7000000402331352,1.4000000208616257 3.1000000461935997,1.4000000208616257 4.200000062584877,0 c1.8000000268220901,-2.1000000312924385 0,-7.500000111758709 -4.800000071525574,-15.000000223517418 c-7.900000117719173,-12.200000181794167 -23.000000342726707,-22.70000033825636 -39.20000058412552,-27.400000408291817 c-10.000000149011612,-2.9000000432133675 -29.60000044107437,-3.6000000536441803 -39.50000058859587,-1.4000000208616257 z" id="svg_3" class="" fill-opacity="1" fill="#664500" stroke="none"/>
<path fill="#ffffff" fill-opacity="1" stroke="none" stroke-opacity="1" stroke-width="1" stroke-dasharray="none" stroke-linejoin="miter" stroke-linecap="butt" stroke-dashoffset="" fill-rule="nonzero" opacity="1" marker-start="" marker-mid="" marker-end="" id="svg_10" d="M113.81094266137262,302.7502577653455 C113.81094266137262,302.7502577653455 152.7263842842837,326.27795018276635 152.7263842842837,326.27795018276635 C152.7263842842837,326.27795018276635 247.3616627763631,317.56399002816613 246.92830911482454,317.55704092977976 C247.3616627763631,317.56399002816613 308.3881507759283,285.322337456145 307.9548005668962,285.3153865337227 C308.3881507759283,285.322337456145 320.7703367468545,253.08068488412385 320.336987238331,253.0737321376655 C320.7703367468545,253.08068488412385 318.1170111816561,214.7392602038826 317.68366152302355,214.7323052883003 C318.1170111816561,214.7392602038826 304.85038335566367,188.5973797400817 303.96594150059747,188.5973797400817 C303.08149964553127,188.5973797400817 271.2415928631495,172.0408554463411 270.8082405525917,172.03389811514356 C271.2415928631495,172.0408554463411 225.25061639970906,187.72598372462164 224.81726148726239,187.71902728079294 C225.25061639970906,187.72598372462164 191.64182590719486,212.12507215750253 191.64182590719486,212.99646817296255 C191.64182590719486,213.86786418842257 171.2996632406731,216.48205223480264 170.86630527601065,216.4750974178169 C171.2996632406731,216.48205223480264 131.49977976269582,212.12507215750247 131.06641954639872,212.1181170940254 C131.49977976269582,212.12507215750247 102.3131985455125,230.4243884821631 101.87983667801662,230.41743445394968 C102.3131985455125,230.4243884821631 97.89098927018166,270.50860519332446 97.45762715250419,270.5016534328315 " style="color: rgb(255, 204, 77);" class="" transform="rotate(-0.0237968061119318 208.92114257807378,249.15592956541616) "/><path d="M259.200003862381,165.09999633580446 c-14.600000217556953,1.9000000283122063 -24.900000371038914,7.1000001057982445 -47.10000070184469,23.70000035315752 c-9.00000013411045,6.800000101327896 -18.600000277161598,13.40000019967556 -21.200000315904617,14.800000220537186 c-11.300000168383121,5.700000084936619 -24.400000363588333,6.800000101327896 -38.70000057667494,3.400000050663948 c-10.700000159442425,-2.600000038743019 -20.700000308454037,-2.600000038743019 -30.100000448524952,0 c-23.600000351667404,6.600000098347664 -35.60000053048134,20.800000309944153 -39.20000058412552,46.40000069141388 c-3.1000000461935997,22.70000033825636 9.200000137090683,47.300000704824924 30.90000046044588,61.700000919401646 c31.900000475347042,21.1000003144145 90.00000134110451,20.60000030696392 151.70000226050615,-1.1000000163912773 c39.20000058412552,-13.90000020712614 58.600000873208046,-34.900000520050526 62.500000931322575,-67.70000100880861 c1.3000000193715096,-10.200000151991844 0.20000000298023224,-25.600000381469727 -2.600000038743019,-37.30000055581331 c-3.9000000581145287,-16.700000248849392 -14.600000217556953,-30.800000458955765 -28.400000423192978,-37.40000055730343 c-11.400000169873238,-5.500000081956387 -26.200000390410423,-8.00000011920929 -37.80000056326389,-6.500000096857548 zm20.300000302493572,19.30000028759241 c9.600000143051147,4.400000065565109 18.500000275671482,17.700000263750553 20.200000301003456,30.200000450015068 c0.6000000089406967,4.300000064074993 0.5000000074505806,4.400000065565109 -2.1000000312924385,4.400000065565109 c-4.700000070035458,0 -17.600000262260437,3.0000000447034836 -26.200000390410423,6.200000092387199 c-10.700000159442425,3.8000000566244125 -25.900000385940075,13.90000020712614 -38.60000057518482,25.50000037997961 c-15.600000232458115,14.300000213086605 -15.800000235438347,15.100000225007534 -1.5000000223517418,7.800000116229057 c23.500000350177288,-12.10000018030405 42.100000627338886,-17.80000026524067 62.000000923871994,-19.10000028461218 l9.700000144541264,-0.7000000104308128 l0,5.900000087916851 c0,14.100000210106373 -5.900000087916851,27.500000409781933 -16.900000251829624,38.500000573694706 c-11.60000017285347,11.60000017285347 -24.50000036507845,18.0000002682209 -49.600000739097595,24.400000363588333 c-17.80000026524067,4.6000000685453415 -32.80000048875809,6.500000096857548 -50.80000075697899,6.500000096857548 c-32.100000478327274,0 -52.60000078380108,-6.500000096857548 -65.90000098198652,-20.700000308454037 c-8.900000132620335,-9.700000144541264 -12.300000183284283,-20.40000030398369 -11.500000171363354,-36.80000054836273 c1.0000000149011612,-21.1000003144145 9.500000141561031,-31.900000475347042 29.200000435113907,-37.000000551342964 c7.900000117719173,-2.0000000298023224 12.200000181794167,-1.9000000283122063 25.100000374019146,0.6000000089406967 c17.600000262260437,3.500000052154064 24.70000036805868,1.4000000208616257 48.600000724196434,-14.000000208616257 c32.40000048279762,-20.800000309944153 54.90000081807375,-28.000000417232513 68.30000101774931,-21.700000323355198 z" id="svg_4" class="" stroke="none" fill="#664500" fill-opacity="1"/>
<path fill="#ffffff" fill-opacity="1" stroke="none" stroke-opacity="1" stroke-width="1" stroke-dasharray="none" stroke-linejoin="miter" stroke-linecap="butt" stroke-dashoffset="" fill-rule="nonzero" opacity="1" marker-start="" marker-mid="" marker-end="" id="svg_8" d="M-19.923735962349326,36.447451840965115 " style="color: rgb(255, 204, 77);"/></g></svg>