<svg xmlns="http://www.w3.org/2000/svg" viewBox="2480 867.638 411 411.362"><defs><style>.a{fill:none;}.b{fill:#0f0f0f;}.c{fill:#484848;}</style></defs><rect class="a" width="411" height="411" transform="translate(2480 868)"/><path class="b" d="M316.651,346.616s5.33-1.539,13.585,3.493c1.929,3.885-1.674,7.1-5.056,8.221l-9.242-.715C310.479,356.788,312.015,347.663,316.651,346.616Z" transform="translate(2399.497 651.153)"/><path class="c" d="M76.391.8c15.316-1.239,20.958.1,30.331,2.327,0,0,.9.225.713,1.051s-1.164.6-1.164.6c-24.017-6.1-49.517-1.064-71.589,9.492a.982.982,0,1,1-.908-1.644C47.025,6.4,61.075,2.035,76.391.8Z" transform="translate(2574.065 867.316)"/><path class="c" d="M9.143,42.707s.034-.627.709-.289.263,1.126.263,1.126C2.157,58.334,2.5,76.122,3.31,90.623c4.122,32.955,10.207,65.838,20.38,97.487,2.369,6.442,10.387,8.859,16.513,6.689,0,0,1.032-.389,1.295.475a.924.924,0,0,1-.563,1.164c-7.68,3.086-17.834-1.327-19.767-9.563A545.715,545.715,0,0,1,1.178,87.582C.892,72.545.941,55.924,9.143,42.707Z" transform="translate(2593.98 841.084)"/><path class="c" d="M52.238,99.994c.785-.916.822.616,1.107,1.137,3.592,37.722,12.256,74.8,22,111.357.372,1.032-.706,1.31-1.5,1.329-9.966-36.637-18.687-73.841-22.238-111.706C51.566,101.346,51.288,100.306,52.238,99.994Z" transform="translate(2562.474 805.238)"/><path class="c" d="M398.581,316.223a.966.966,0,0,1,1.306.062c.563.638-.15,1.276-.15,1.276-9,7.192-20.879,14.531-30.406,20.984a.81.81,0,0,1-1.2-.225.827.827,0,0,1,.308-1.222C378.45,330.112,389.111,323.959,398.581,316.223Z" transform="translate(2364.834 670.148)"/><path class="c" d="M282.487,361.18a14.279,14.279,0,0,0,21.536,9.206.734.734,0,0,1,1.1.328.889.889,0,0,1-.3,1.164c-10.548,6.457-22.786-1.038-24.028-10.464a.8.8,0,0,1,.717-.948A.834.834,0,0,1,282.487,361.18Z" transform="translate(2419.283 642.37)"/><path class="c" d="M95.226,458.357a.808.808,0,0,1,.9-.737c.863.013.826.737.826.737-.338,11.975-.259,27.416-1.685,39.26,0,0,0,.794-.942.644a.827.827,0,0,1-.766-.989C94.933,484.1,94.8,471.563,95.226,458.357Z" transform="translate(2536.236 581.68)"/><path class="b" d="M161.216,70.73a28.914,28.914,0,0,1,11.566,3.086c3.75,5.188,8.96,10,10.852,16.192,1.693,7.241-1.126,15.353-4.564,21.906-9.625-8.842-19.655-28.439-19.46-26.855-.953.5-1.9,1.006-2.842,1.532-.214-.537-14.073,8.523-19.719,15.317-.762,1.633-4.891,4.525-1.693,4.89-.109.178-.935,2.017-2.327,1.941.105-.612-18.5-.539-27.287-2.4-4.553-1.7-1.171-8.36.773-10.924C121.809,75.03,161.014,71.376,161.216,70.73Z" transform="translate(2530.036 823.338)"/><path class="b" d="M365.67,346.551c13.555-5.863,24.073-16.446,34.768-26.281-4.6,11.551,2.9,5.674-20.894,27.906-1.783,3.99,9.2,7.687,8.742,10.914-1.877-1.239-6.3-3.219-8.161-4.161C380.393,354.385,370.85,348.574,365.67,346.551Z" transform="translate(2366.263 667.471)"/><path class="b" d="M373.88,439.34c8.66-1.314,15.83-2.553,23.807-1.991a.843.843,0,0,1,.732,1.09.908.908,0,0,1-1.164.708c-7.827-.815-15.608,1.025-23.375,1.791a.753.753,0,0,1-.762-.772A.78.78,0,0,1,373.88,439.34Z" transform="translate(2361.612 594.428)"/><path class="b" d="M378.79,457.942c7.9-.9,15.815-1.843,23.762-2.192-1.648,4.009-2.849,12.44-2.324,12.459-.4,1.494-.728,3.007-1,4.527-.5-.086,2.456,14.936,6.6,39.71,2.515,7.77,1.107,4.382.075,6.607A97.43,97.43,0,0,0,401.82,508.5c1.1-.45-9.952-25.881-11.907-38.734C389.263,463.334,384.68,459.177,378.79,457.942Z" transform="translate(2358.068 582.848)"/><path class="b" d="M119.97,567.96c44.164,22.87,96.717,35.6,99.3,35.556,1.663,1.509.432,3.923.372,5.83-1.265,1.567-5.286,18.654-2.617,28.219,2.77,11.393,6.183,22.195,9.869,33.306-1.288-1.937-2.556-3.889-3.9-5.785-2.478-3.76-15.515-24.389-16.048-24.216a29.862,29.862,0,0,0-9.283-4.516c-8.792-1.53-7.44-.591-10.477-3.086,1.314-4.475,5.525-8.542,9.381-10.944,2.56-1.485-57.771-42.643-62.276-42.465C129.437,576.031,123.8,572.881,119.97,567.96Z" transform="translate(2519.731 512.759)"/><path class="b" d="M100.215,956.391c-4.069-21.048-4.429-43.629,2.793-64l1,3.752c.15,1.378,8.765,61.974,9.779,62.931-2.136,2.7-5.826.06-8.626.053A21.977,21.977,0,0,1,100.215,956.391Z" transform="translate(2533.874 310.115)"/><path class="c" d="M248.223,24.368a.927.927,0,0,1,.15-1.239.937.937,0,0,1,1.25.085c8.776,10.9,17.864,21.9,24.028,34.535,2.951,7.252.724,15.2-1.558,22.305-.439,1.618-1.824,3.634-.308,5.086,13.81,16.367,31.776,28.57,50.151,39.235a.93.93,0,0,1,.314,1.369.875.875,0,0,1-1.279.277c-20-11.52-39.82-25.434-54.062-43.869-6.385-8.48-13.882-16.418-18.424-30.832a1.04,1.04,0,0,1,.563-1.426,1.062,1.062,0,0,1,1.393.629C253.778,62.5,261.8,72.449,269.372,82.048c2.447-6.768,4.974-14.156,3.281-21.4-1.892-6.194-5.818-11.513-9.569-16.7C259.131,38.2,256.819,34.991,248.223,24.368Z" transform="translate(2439.734 853.203)"/><path class="c" d="M103.85,95.216c12.767-16.964,35.26-23.886,55.692-24.486,0,0,.8.133.8.846s-.8.788-.8.788c-19.313,1.479-41.367,7.352-53.74,23.291-1.944,2.564-5.514,8.18-.961,9.884,8.791,1.862,17.481.79,26.4,1.4a.981.981,0,0,1,.938.863c.225.9-.829.937-.829.937-9.032-.552-18.274.518-27.159-1.434C98.5,105.577,101.073,98.493,103.85,95.216Z" transform="translate(2531.71 823.338)"/><path class="c" d="M184.377,129.141c3.491-8.559,14.651-16.162,22.242-20.648a.777.777,0,0,1,1.107.34c.375.751-.477,1.275-.477,1.275-7.954,5.6-17.211,11.059-21.412,20.207,0,0-.71,1.041-1.235.1S184.377,129.141,184.377,129.141Z" transform="translate(2479.554 799.821)"/><path class="c" d="M307.868,349.881c1.348-9.212,15.567-9.467,19.5-2.158a1,1,0,0,1-.522,1.349,1.025,1.025,0,0,1-1.389-.526c-1.051-2.553-6.621-5.5-11.494-3.538s-5.511,7.629-.526,9.448c2.663.623,6.013.659,8.153-.43,0,0,1.089-.188,1.276.713a1.022,1.022,0,0,1-.555,1.2C317.162,357.659,307.744,357.114,307.868,349.881Z" transform="translate(2402.367 653.54)"/><path class="c" d="M417.534,319.118a1,1,0,0,1,1.287-.633c.976.3.492,1.278.492,1.278-4.651,10.942-13.987,23.043-25,28.414,0,0-.788.45-1.164-.263a.83.83,0,0,1,.379-1.117C405.034,341.416,412.932,330.669,417.534,319.118Z" transform="translate(2349.167 668.623)"/><path class="c" d="M362.1,391.419a.744.744,0,0,1-.255-1.132.994.994,0,0,1,1.333-.264c5.18,2.023,10.244,4.324,15.248,6.742a.815.815,0,0,1,.349,1.18.871.871,0,0,1-1.141.456C372.519,395.927,367.272,393.754,362.1,391.419Z" transform="translate(2368.756 623.999)"/><path class="c" d="M412.676,410.09l-12.613-12.5a.71.71,0,0,1,1.051-.938c4.332,4.426,8.3,8.212,12.774,12.506a.672.672,0,0,1-.124,1.008A.806.806,0,0,1,412.676,410.09Z" transform="translate(2344.876 619.887)"/><path class="c" d="M373.88,439.34c8.66-1.314,15.83-2.553,23.807-1.991a.843.843,0,0,1,.732,1.09.908.908,0,0,1-1.164.708c-7.827-.815-15.608,1.025-23.375,1.791a.753.753,0,0,1-.762-.772A.78.78,0,0,1,373.88,439.34Z" transform="translate(2359.735 595.929)"/><path class="c" d="M435.593,454.865a.816.816,0,0,1,1.062-.475.778.778,0,0,1,.575.967,125.407,125.407,0,0,0-3.96,11.967.786.786,0,0,1-.856.73.674.674,0,0,1-.721-.786C432.211,462.929,433.945,458.874,435.593,454.865Z" transform="translate(2325.026 583.732)"/><path class="c" d="M376.471,463.292s-1.126-.225-.9-1.126a.935.935,0,0,1,1.19-.636c5.89,1.235,11.378,5.053,12.027,11.483a131.255,131.255,0,0,0,12.571,38.216.891.891,0,0,1-.3,1.164c-.676.526-1.269-.306-1.269-.306a116.791,116.791,0,0,1-12.677-38.161C386.494,469.21,384.129,465.094,376.471,463.292Z" transform="translate(2360.097 579.26)"/><path class="c" d="M423.635,499.017s.049-.971.912-.708a.873.873,0,0,1,.717.982c1.288,13.919,4.809,27.5,8.037,41.071,2.155,8.048-6.84,15.118-11.494,19.36a.728.728,0,0,1-1.126,0,.884.884,0,0,1,.132-1.222c4.414-3.6,10.9-11.241,10.886-13.3C433.293,541.666,423.932,514.742,423.635,499.017Z" transform="translate(2332.029 556.293)"/><path class="c" d="M119.086,565.051a.978.978,0,0,1-.432-1.267c.375-.826,1.351-.338,1.351-.338,29.28,18.319,66.019,29.391,98.38,37.161a.721.721,0,0,1,.42,1.053c-.375.788-.976.525-.976.525C183.591,594.445,149.342,583.133,119.086,565.051Z" transform="translate(2520.615 515.668)"/><path class="c" d="M39.146,590.471a.778.778,0,0,1,1.122-.182.741.741,0,0,1,.15,1.089C26.034,612.32,14.45,638.463,12.738,664.023a291.482,291.482,0,0,0,9.156,94.071.963.963,0,0,1-.432,1.342.8.8,0,0,1-1.2-.433,291.059,291.059,0,0,1-9.629-92.269C12.077,639.2,22.821,612.472,39.146,590.471Z" transform="translate(2588.302 498.924)"/><path class="c" d="M157.431,597.081a.962.962,0,0,1-.3-1.192c.375-.676,1.2-.188,1.2-.188,22.913,13.214,49.179,29.391,67.516,48.7,0,0,.7.779,0,1.379s-1.487-.263-1.487-.263C205.1,625.319,179.132,609.622,157.431,597.081Z" transform="translate(2496.591 495.538)"/><path class="c" d="M375.685,675.82a.814.814,0,0,1,1.051-.6.84.84,0,0,1,.59,1.1c-3.183,10.5-4.354,21.735-.631,32.283,11.156,34.719,24.377,68.748,37.2,102.866,0,0,.45.993-.338,1.293s-1.2-.638-1.2-.638c-9.576-24.467-18.912-49.545-27.782-74.279-3.686-11.111-8.086-22.024-10.856-33.417C371.053,694.862,372.873,684.863,375.685,675.82Z" transform="translate(2362.047 445.787)"/><path class="c" d="M247.047,731.56a.909.909,0,1,1,.563-1.689,143.44,143.44,0,0,0,18.458,4.444c8.461,1.468,17.279,2.061,25.642-.285,0,0,1.006-.073,1.043.752a1.075,1.075,0,0,1-.788,1.051C280.817,739.662,259.645,735.721,247.047,731.56Z" transform="translate(2440.849 411.713)"/><path class="c" d="M351.569,760.567a.659.659,0,0,1,.507-.941.918.918,0,0,1,1.1.441c5.083,7.151,9.64,14.67,14.6,21.907,0,0,.488.813-.049,1.3s-1.2-.15-1.2-.15C360.878,775.276,356.809,768.694,351.569,760.567Z" transform="translate(2375.108 393.063)"/><path class="c" d="M112.46,891.293s-.015-.79.7-.64.676.713.676.713c2.076,20.89,5.563,45.526,10.1,66.03a.887.887,0,0,1-.713,1.089.922.922,0,0,1-1.164-.713C118.012,936.945,113.286,912.472,112.46,891.293Z" transform="translate(2524.422 311.212)"/><path class="c" d="M48.187,1043.448a.828.828,0,0,1-.413-1.089.762.762,0,0,1,1.066-.336c6.708,2.628,19.617,8.369,25.623,8.782a.864.864,0,0,1,.713.976c-.113.826-1.025.745-1.025.745C65.376,1050.98,56.415,1046.823,48.187,1043.448Z" transform="translate(2564.88 216.713)"/><path class="c" d="M276.784,1055.319s1-.366,1.3.422-.713,1.2-.713,1.2c-36.641,16.479-80.4,16.4-118.669,6.53a.8.8,0,0,1-.627-1.012.765.765,0,0,1,.976-.638c26.787,6.081,55.947,9.615,83.159,4.3A167.878,167.878,0,0,0,276.784,1055.319Z" transform="translate(2495.949 208.4)"/></svg>